<?xml version="1.0" encoding="UTF-8"?>
<svg width="842px" height="596px" viewBox="0 0 842 596" version="1.1" xmlns="http://www.w3.org/2000/svg" xmlns:xlink="http://www.w3.org/1999/xlink">
    <!-- Generator: Sketch 61 (89581) - https://sketch.com -->
    <title>Group 4</title>
    <desc>Created with Sketch.</desc>
    <g id="Page-1" stroke="none" stroke-width="1" fill="none" fill-rule="evenodd">
        <g id="Artboard" transform="translate(-458.000000, -78.000000)">
            <g id="Group-4" transform="translate(458.340363, 78.000000)">
                <g id="Group-3" transform="translate(202.659637, 0.000000)">
                    <g id="Group">
                        <polygon id="Path" fill="#79A5FF" points="43.0605038 83.9617742 127.593025 83.9617742 143.517336 35.599559"></polygon>
                        <polygon id="Path" fill="#5489F3" transform="translate(225.892408, 44.181108) scale(1, -1) translate(-225.892408, -44.181108) " points="175.919058 68.3622152 258.91295 68.3622152 275.865757 20"></polygon>
                        <polygon id="Path-2" fill="#326DE6" points="143.517336 35.599559 143.517336 83.9617742 127.593025 83.9617742"></polygon>
                        <polygon id="Path-3" fill="#79A5FF" points="143.517336 35.599559 217.408924 112.779703 217.416004 40.0839653"></polygon>
                        <polygon id="Path-4" fill="#A8C4FF" points="175.919058 20 258.91295 20 217.416004 0"></polygon>
                        <polygon id="Path-5" fill="#326DE6" points="143.517336 35.599559 217.416004 40.0950391 175.919058 20"></polygon>
                        <polygon id="Path-6" fill="#A8C4FF" points="143.517336 35.599559 143.517336 177.470341 217.408924 112.779703"></polygon>
                        <polygon id="Path-7" fill="#A8C4FF" points="43.0605038 83.9617742 113.218751 153.383901 143.517336 83.9617742"></polygon>
                        <polygon id="Path-8" fill="#79A5FF" points="143.517336 83.9617742 143.517336 243.19328 113.218751 153.383901"></polygon>
                        <polygon id="Path-9" fill="#79A5FF" points="113.218751 153.383901 43.0605038 83.9617742 27.2099313 153.383901"></polygon>
                        <polygon id="Path-10" fill="#5489F3" points="143.517336 243.19328 217.408924 112.779703 143.517336 177.470341"></polygon>
                        <polygon id="Path-11" fill="#A8C4FF" points="113.218751 153.383901 93.2889201 195.826942 143.517336 243.19328"></polygon>
                        <polygon id="Path-12" fill="#79A5FF" points="93.2889201 195.826942 11.3199785 223 27.2099313 153.383901"></polygon>
                        <polygon id="Path-13" fill="#5489F3" points="27.2099313 153.383901 93.2889201 195.826942 113.218751 153.383901"></polygon>
                        <polygon id="Path-14" fill="#326DE6" points="5.68434189e-14 272.622168 93.2889201 195.826942 11.3199785 223"></polygon>
                        <polygon id="Path-15" fill="#A8C4FF" points="217.416004 112.779703 275.865757 68.3622152 217.416004 40.0839653"></polygon>
                        <polygon id="Path-16" fill="#A8C4FF" points="275.865757 68.3622152 341.480772 59.7261068 258.91295 20"></polygon>
                        <polygon id="Path-17" fill="#5489F3" points="217.408924 112.779703 275.865757 150.722477 341.480772 59.7261068 275.865757 68.3622152"></polygon>
                        <polygon id="Path-18" fill="#2C60C8" points="209.691547 196.9588 275.865757 150.722477 217.408924 112.779703"></polygon>
                        <polygon id="Path-19" fill="#326DE6" points="189.454936 211.078166 180.46667 288.208045 275.865757 205.023482 229.49956 183.103292"></polygon>
                        <polygon id="Path-20" fill="#2D55A5" points="180.46313 288.208045 143.517336 330.454528 51.4437921 262.07957 143.517336 243.19328"></polygon>
                        <polygon id="Path-21" fill="#2D55A5" points="-3.55271368e-15 272.622168 51.4437921 262.07957 46.1079797 330.454528"></polygon>
                        <polygon id="Path-22" fill="#5489F3" points="46.1079797 330.454528 143.517336 330.454528 86.3993138 288.029538"></polygon>
                        <polygon id="Path-23" fill="#326DE6" points="51.4437921 262.07957 46.1079797 330.454528 86.3993138 288.029538"></polygon>
                        <polygon id="Path-24" fill="#234A96" points="96.0572536 330.454528 46.1079797 330.454528 71.4616566 362.230398"></polygon>
                        <polygon id="Path-25" fill="#1D52BB" points="86.3993138 362.230398 115.953461 362.230398 143.517336 330.454528 96.0572536 330.454528"></polygon>
                        <polygon id="Path-26" fill="#326DE6" points="71.4616566 362.230398 86.3993138 362.230398 96.0572536 330.454528"></polygon>
                        <polygon id="Path-27" fill="#5489F3" points="115.953461 362.230398 120.652851 423.916058 71.4616566 362.230398"></polygon>
                        <polygon id="Path-28" fill="#1D4493" points="115.953461 362.230398 180.46667 362.230398 180.46667 288.208045"></polygon>
                        <polygon id="Path-29" fill="#234A96" points="180.46667 362.230398 115.953461 362.230398 120.652851 423.916058"></polygon>
                        <polygon id="Path-30" fill="#2D55A5" points="275.865757 150.722477 275.865757 205.023482 345.001051 150.722477"></polygon>
                        <polygon id="Path-31" fill="#326DE6" points="275.865757 150.722477 406.996466 150.722477 391.757345 83.9617742"></polygon>
                        <polygon id="Path-32" fill="#326DE6" points="275.865757 205.023482 310.433404 238.824505 345.001051 150.722477"></polygon>
                        <polygon id="Path-33" fill="#2D55A5" points="180.46667 288.208045 310.433404 238.824505 275.865757 205.023482"></polygon>
                        <polygon id="Path-34" fill="#1D52BB" points="310.433404 238.824505 402.713432 198.28859 406.996466 150.722477 345.001051 150.722477"></polygon>
                        <polygon id="Path-35" fill="#12357C" points="402.713432 198.28859 406.996466 150.722477 417.863291 198.28859"></polygon>
                        <polygon id="Path-36" fill="#1D52BB" points="402.713432 198.28859 380.589239 238.824505 428.117289 243.174742 417.863291 198.28859"></polygon>
                        <polygon id="Path-37" fill="#12357C" points="380.589239 238.824505 310.433404 238.824505 402.713432 198.28859"></polygon>
                        <polygon id="Path-38" fill="#1D4493" points="345.001051 238.824505 283.139141 296.267049 180.46667 288.208045 310.433404 238.824505"></polygon>
                        <polygon id="Path-39" fill="#326DE6" points="283.139141 296.267049 380.589239 238.824505 345.001051 238.824505"></polygon>
                        <polygon id="Path-40" fill="#5489F3" points="180.46667 362.230398 235.412186 292.524013 180.46667 288.208045"></polygon>
                        <polygon id="Path-41" fill="#1D4493" points="231.802905 330.454528 283.139141 296.267049 235.412186 292.524013"></polygon>
                        <polygon id="Path-42" fill="#1D52BB" points="231.802905 330.454528 235.412186 292.524013 180.46667 362.230398"></polygon>
                        <polygon id="Path-43" fill="#12357C" points="380.589239 238.824505 402.713432 286.823904 434.817849 272.622168 428.117289 243.174742"></polygon>
                        <polygon id="Path-44" fill="#1D4493" points="402.713432 286.823904 434.817849 272.622168 402.713432 312.89846"></polygon>
                        <polygon id="Path-45" fill="#12357C" points="402.713432 312.89846 345.001051 259.833603 380.589239 238.824505"></polygon>
                        <polygon id="Path-46" fill="#326DE6" points="380.589239 238.824505 402.713432 286.823904 402.713432 312.89846"></polygon>
                        <polygon id="Path-47" fill="#1D4493" points="283.139141 296.267049 402.713432 312.89846 345.001051 259.833603"></polygon>
                        <polygon id="Path-48" fill="#1D52BB" points="283.139141 296.267049 331.86419 334.077528 331.86419 303.04292"></polygon>
                        <polygon id="Path-49" fill="#12357C" points="331.86419 334.077528 385.805024 334.077528 402.713432 312.89846 331.86419 303.04292"></polygon>
                        <polygon id="Path-50" fill="#2D55A5" points="331.86419 334.077528 385.805024 334.077528 358.834607 367.905455"></polygon>
                        <polygon id="Path-51" fill="#12357C" points="331.86419 334.077528 331.86419 401.763528 358.834607 367.905455"></polygon>
                        <polygon id="Path-52" fill="#1D52BB" points="180.46667 362.230398 167.11322 423.916058 120.652851 423.916058"></polygon>
                        <polygon id="Path-53" fill="#12357C" points="180.46313 362.230398 251.161981 362.230398 291.277959 334.077528 225.965322 334.077528"></polygon>
                        <polygon id="Path-54" fill="#2D55A5" points="291.277959 334.077528 263.423968 309.412521 225.965322 334.077528"></polygon>
                        <polygon id="Path-55" fill="#1D4493" points="291.277959 334.077528 283.139141 296.267049 263.423968 309.412521"></polygon>
                        <polygon id="Path-56" fill="#234A96" points="331.86419 334.077528 291.277959 334.077528 283.139141 296.267049"></polygon>
                        <polygon id="Path-57" fill="#326DE6" points="167.11322 423.916058 251.161981 362.230398 180.46667 362.230398"></polygon>
                        <polygon id="Path-58" fill="#12357C" points="167.11322 423.916058 225.965322 423.916058 217.408924 387.043039"></polygon>
                        <polygon id="Path-59" fill="#326DE6" points="314.164998 423.916058 331.86419 334.077528 331.86419 401.763528"></polygon>
                        <polygon id="Path-60" fill="#12357C" points="331.86419 334.077528 291.277959 334.077528 314.164998 423.916058"></polygon>
                        <polygon id="Path-61" fill="#1D4493" points="314.164998 423.916058 251.161981 362.230398 291.277959 334.077528"></polygon>
                        <polygon id="Path-62" fill="#1D4493" points="251.161981 362.230398 225.965322 423.916058 217.408924 387.043039"></polygon>
                        <polygon id="Path-63" fill="#12357C" points="225.965322 423.916058 314.164998 423.916058 276.516835 387.043039"></polygon>
                        <polygon id="Path-64" fill="#2D55A5" points="225.965322 423.916058 251.161981 362.230398 276.516835 387.043039"></polygon>
                        <polygon id="Path-65" fill="#5489F3" points="229.49956 183.103292 275.865757 150.722477 275.865757 205.023482"></polygon>
                        <polygon id="Path-66" fill="#79A5FF" points="143.517336 243.174742 209.691547 196.9588 188.433989 163.996144"></polygon>
                        <polygon id="Path-67" fill="#79A5FF" points="188.433989 163.996144 209.691547 196.9588 217.416004 112.779703"></polygon>
                        <polygon id="Path-68" fill="#2D55A5" points="275.865757 150.722477 341.431111 59.7806666 356.498375 104.241001"></polygon>
                        <polygon id="Path-69" fill="#5489F3" points="356.498375 104.241001 391.757345 83.9617742 341.480772 59.7806666"></polygon>
                        <polygon id="Path-70" fill="#5489F3" points="180.46667 288.029538 189.454936 211.078166 143.517336 243.19328"></polygon>
                        <polygon id="Path-71" fill="#2C60C8" points="4.26325641e-14 272.622168 93.2889201 195.826942 143.517336 243.19328"></polygon>
                    </g>
                    <g id="Group-2" opacity="0.857886905" transform="translate(2.000000, 6.000000)">
                        <circle id="Oval" fill="#FFFFFF" cx="97.3975662" cy="119.908445" r="5"></circle>
                        <circle id="Oval-Copy-3" fill="#FFFFFF" cx="37.3975662" cy="221.908445" r="5"></circle>
                        <circle id="Oval-Copy-4" fill="#FFFFFF" cx="161.397566" cy="182.908445" r="5"></circle>
                        <circle id="Oval-Copy-5" fill="#FFFFFF" cx="238.397566" cy="216.908445" r="5"></circle>
                        <circle id="Oval-Copy-6" fill="#FFFFFF" cx="121.397566" cy="290.908445" r="5"></circle>
                        <circle id="Oval-Copy-7" fill="#FFFFFF" cx="199.397566" cy="329.908445" r="5"></circle>
                        <circle id="Oval-Copy-9" fill="#FFFFFF" cx="332.397566" cy="198.908445" r="5"></circle>
                        <circle id="Oval-Copy-15" fill="#FFFFFF" cx="395.397566" cy="226.908445" r="5"></circle>
                        <circle id="Oval-Copy-11" fill="#FFFFFF" cx="317.397566" cy="280.908445" r="5"></circle>
                        <circle id="Oval-Copy-13" fill="#FFFFFF" cx="350.397566" cy="339.908445" r="5"></circle>
                        <circle id="Oval-Copy-12" fill="#FFFFFF" cx="290.397566" cy="367.908445" r="5"></circle>
                        <circle id="Oval-Copy-10" fill="#FFFFFF" cx="322.397566" cy="62.9084449" r="5"></circle>
                        <circle id="Oval-Copy-14" fill="#FFFFFF" cx="378.397566" cy="119.908445" r="5"></circle>
                        <circle id="Oval-Copy-8" fill="#FFFFFF" cx="107.397566" cy="385.908445" r="5"></circle>
                        <circle id="Oval-Copy" fill="#FFFFFF" cx="178.397566" cy="52.9084449" r="5"></circle>
                        <circle id="Oval-Copy-2" fill="#FFFFFF" cx="263.397566" cy="119.908445" r="5"></circle>
                        <line x1="97.3975662" y1="119.908445" x2="60.89893" y2="68.0980759" id="Path-72" stroke="#FFFFFF"></line>
                        <polygon id="Path-73" stroke="#FFFFFF" points="97.3975662 119.908445 37.3975662 221.908445 121.397566 290.908445"></polygon>
                        <line x1="37.3975662" y1="221.908445" x2="9.30862028" y2="214.640111" id="Path-74" stroke="#FFFFFF"></line>
                        <line x1="37.3975662" y1="221.908445" x2="-7.10542736e-14" y2="255.988015" id="Path-75" stroke="#FFFFFF"></line>
                        <line x1="37.3975662" y1="221.908445" x2="24.6676857" y2="148.467134" id="Path-76" stroke="#FFFFFF"></line>
                        <line x1="97.3975662" y1="119.908445" x2="30.0865055" y2="125.493271" id="Path-77" stroke="#FFFFFF"></line>
                        <polygon id="Path-78" stroke="#FFFFFF" points="121.397566 290.908445 107.397566 386.981673 199.397566 329.908445"></polygon>
                        <polygon id="Path-79" stroke="#FFFFFF" points="199.397566 329.908445 238.397566 216.908445 290.397566 367.908445"></polygon>
                        <polyline id="Path-80" stroke="#FFFFFF" points="199.397566 329.908445 238.397566 216.908445 121.397566 292.408445"></polyline>
                        <polygon id="Path-81" stroke="#FFFFFF" points="161.397566 182.908445 263.397566 119.908445 178.451772 52.9084449"></polygon>
                        <polyline id="Path-82" stroke="#FFFFFF" points="161.397566 182.100395 97.3975662 119.908445 178.397566 53.6891114"></polyline>
                        <line x1="161.397566" y1="182.908445" x2="121.397566" y2="290.175494" id="Path-83" stroke="#FFFFFF"></line>
                        <line x1="161.397566" y1="182.908445" x2="238.397566" y2="216.908445" id="Path-84" stroke="#FFFFFF"></line>
                        <polygon id="Path-85" stroke="#FFFFFF" points="263.397566 119.908445 332.397566 198.931927 238.397566 216.908445"></polygon>
                        <polyline id="Path-86" stroke="#FFFFFF" points="332.397566 198.908445 317.397566 280.908445 238.397566 218.274278"></polyline>
                        <polygon id="Path-87" stroke="#FFFFFF" points="317.397566 282.11649 290.397566 367.908445 350.397566 340.250908"></polygon>
                        <line x1="332.397566" y1="199.908445" x2="350.397566" y2="340.250908" id="Path-88" stroke="#FFFFFF"></line>
                        <polyline id="Path-89" stroke="#FFFFFF" points="332.397566 198.931927 378.577881 119.908445 263.397566 119.908445"></polyline>
                        <polyline id="Path-90" stroke="#FFFFFF" points="263.397566 119.908445 322.397566 62.9084449 178.397566 53.6345516"></polyline>
                        <polyline id="Path-91" stroke="#FFFFFF" points="322.397566 62.9084449 378.397566 119.908445 395.397566 226.908445 332.397566 199.908445"></polyline>
                        <line x1="37.3975662" y1="221.908445" x2="107.397566" y2="385.908445" id="Path-92" stroke="#FFFFFF"></line>
                        <line x1="107.397566" y1="385.908445" x2="290.397566" y2="367.908445" id="Path-93" stroke="#FFFFFF"></line>
                        <line x1="290.397566" y1="367.908445" x2="289.266601" y2="417.824502" id="Path-94" stroke="#FFFFFF"></line>
                        <line x1="290.397566" y1="367.908445" x2="322.397566" y2="405.387251" id="Path-95" stroke="#FFFFFF"></line>
                        <line x1="290.397566" y1="367.908445" x2="215.488642" y2="417.908445" id="Path-96" stroke="#FFFFFF"></line>
                        <line x1="107.397566" y1="385.908445" x2="137.897566" y2="417.908445" id="Path-97" stroke="#FFFFFF"></line>
                        <line x1="107.397566" y1="385.908445" x2="92.8012998" y2="385.908445" id="Path-98" stroke="#FFFFFF"></line>
                        <line x1="107.397566" y1="386.647848" x2="105.589638" y2="403.448231" id="Path-99" stroke="#FFFFFF"></line>
                        <line x1="350.397566" y1="339.908445" x2="383.793666" y2="328.583931" id="Path-100" stroke="#FFFFFF"></line>
                        <line x1="350.397566" y1="339.908445" x2="350.397566" y2="371.212111" id="Path-101" stroke="#FFFFFF"></line>
                        <line x1="350.397566" y1="339.908445" x2="365.277453" y2="351.938451" id="Path-102" stroke="#FFFFFF"></line>
                        <line x1="178.397566" y1="53.6891114" x2="152.897566" y2="23.4084449" id="Path-103" stroke="#FFFFFF"></line>
                        <line x1="178.397566" y1="53.6345516" x2="199.897566" y2="0.408444858" id="Path-104" stroke="#FFFFFF"></line>
                        <line x1="178.397566" y1="53.6345516" x2="258.897566" y2="13.4084449" id="Path-105" stroke="#FFFFFF"></line>
                        <line x1="97.3975662" y1="119.908445" x2="111.207393" y2="43.6207514" id="Path-106" stroke="#FFFFFF"></line>
                        <line x1="378.577881" y1="119.908445" x2="391.910901" y2="86.7714983" id="Path-107" stroke="#FFFFFF"></line>
                        <line x1="378.577881" y1="119.908445" x2="409.835079" y2="165.346368" id="Path-108" stroke="#FFFFFF"></line>
                        <line x1="378.577881" y1="119.908445" x2="400.702073" y2="122.700858" id="Path-109" stroke="#FFFFFF"></line>
                        <line x1="322.397566" y1="62.9084449" x2="322.397566" y2="45.0639264" id="Path-110" stroke="#FFFFFF"></line>
                        <line x1="322.397566" y1="62.9084449" x2="350.397566" y2="57.9084449" id="Path-111" stroke="#FFFFFF"></line>
                        <line x1="322.397566" y1="62.9084449" x2="304.897566" y2="36.4084449" id="Path-112" stroke="#FFFFFF"></line>
                        <line x1="395.397566" y1="226.908445" x2="350.397566" y2="339.908445" id="Path-113" stroke="#FFFFFF"></line>
                        <line x1="395.397566" y1="226.908445" x2="423.587316" y2="226.908445" id="Path-114" stroke="#FFFFFF"></line>
                        <line x1="395.397566" y1="226.908445" x2="413.856512" y2="290.908445" id="Path-115" stroke="#FFFFFF"></line>
                    </g>
                </g>
                <path d="M19.8096371,595.05 C27.3096371,595.05 33.3096371,589.05 33.3096371,581.7 L33.3105018,568.33464 C33.3297978,567.967056 33.6177452,561.040541 28.5096371,551.7 L15.6096371,527.4 C15.6096371,527.4 10.9596371,519.45 10.9596371,513.3 L10.9596371,503.25 C10.9596371,499.95 13.5096371,497.4 16.6596371,497.4 C19.8096371,497.4 22.3596371,499.95 22.3596371,503.25 L22.3596371,515.4 C25.2096371,514.2 29.4096371,512.25 30.3096371,511.8 C31.6596371,511.05 33.3096371,509.4 33.3096371,505.95 L33.3096371,501.9 C33.3096371,494.7 27.4596371,488.1 20.2596371,487.95 L13.5096371,487.95 C6.00963712,487.95 0.00963712076,494.55 0.00963712076,501.9 L0.00877241383,512.71536 C-0.0105235805,513.082944 -0.298470987,520.009459 4.80963712,529.35 L17.7096371,553.5 C17.7096371,553.5 22.3596371,561.6 22.3596371,567.75 L22.3596371,579.75 C22.3596371,583.05 19.8096371,585.6 16.6596371,585.6 C13.5096371,585.6 10.9596371,583.05 10.9596371,579.9 L10.9596371,561.6 C8.25963712,562.8 3.90963712,564.75 3.00963712,565.05 C1.65963712,565.8 0.00963712076,567.45 0.00963712076,570.9 L0.00963712076,581.7 C0.159637121,588.9 5.85963712,594.75 13.0596371,595.05 L19.8096371,595.05 Z M110.559637,595.05 C117.759637,594.75 123.459637,588.9 123.459637,581.7 L123.459637,556.35 C120.759637,557.55 116.559637,559.35 115.659637,559.8 C114.309637,560.55 112.809637,562.2 112.809637,565.65 L112.809637,579.75 C112.809637,583.05 110.259637,585.6 106.959637,585.6 C103.809637,585.6 101.259637,583.05 101.259637,579.75 L101.259637,503.1 C101.259637,499.95 103.809637,497.4 106.959637,497.4 C110.259637,497.4 112.809637,499.95 112.809637,503.1 L112.809637,526.65 L120.609637,523.05 C121.959637,522.45 123.459637,520.8 123.459637,517.35 L123.459637,501.3 C123.459637,494.1 117.759637,488.1 110.559637,487.95 L103.959637,487.95 C96.4596371,487.95 90.4596371,493.95 90.4596371,501.3 L90.4596371,581.7 C90.4596371,589.05 96.4596371,595.05 103.959637,595.05 L110.559637,595.05 Z M189.609637,594 L189.609637,545.85 L201.309637,545.85 C202.659637,545.85 203.709637,546.9 203.859637,548.25 L203.859637,594 L214.659637,594 L214.659637,493.2 C214.659637,491.4 213.609637,489 210.309637,489 L203.859637,489 L203.859637,535.2 L193.359637,535.2 C190.809637,535.2 189.609637,534.45 189.609637,531.45 L189.609637,489 L183.159637,489 C179.859637,489 178.809637,491.4 178.809637,493.2 L178.809637,594 L189.609637,594 Z M298.509637,594 C301.959637,594 303.609637,592.5 304.359637,591.15 C304.809637,590.25 306.609637,586.05 307.809637,583.35 L285.309637,583.35 L285.309637,546.9 C285.309637,545.55 286.509637,544.35 287.859637,544.35 L292.359637,544.35 C295.809637,544.35 297.309637,542.85 298.059637,541.5 C298.509637,540.6 300.309637,536.25 301.509637,533.55 L285.309637,533.55 L285.309637,502.35 C285.309637,500.85 286.359637,499.8 287.859637,499.8 L296.559637,499.8 C300.009637,499.8 301.659637,498.15 302.259637,496.8 L305.859637,489 L277.809637,489 C276.009637,489 274.659637,490.35 274.509637,492 L274.509637,594 L298.509637,594 Z M365.259637,594 L365.259637,539.85 L371.559637,567.3 C372.159637,569.55 373.359637,575.85 379.659637,575.85 L382.959637,575.85 L391.059637,539.85 L391.059637,594 L401.709637,594 L401.709637,489 L395.109637,489 C391.209637,489 390.459637,492.3 390.309637,492.75 L378.459637,553.2 L366.009637,492.9 C366.009637,492.9 365.409637,489 361.209637,489 L354.609637,489 L354.609637,594 L365.259637,594 Z M457.209637,594 L466.659637,521.7 L476.109637,594 L487.959637,594 L472.809637,494.7 C472.359637,491.85 471.609637,489 467.109637,489 L467.109637,489 L461.259637,489 L445.359637,594 L457.209637,594 Z M546.609637,594 L546.609637,545.85 L558.309637,545.85 C559.659637,545.85 560.709637,546.9 560.859637,548.25 L560.859637,594 L571.659637,594 L571.659637,493.2 C571.659637,491.4 570.609637,489 567.309637,489 L560.859637,489 L560.859637,535.2 L550.359637,535.2 C547.809637,535.2 546.609637,534.45 546.609637,531.45 L546.609637,489 L540.159637,489 C536.859637,489 535.809637,491.4 535.809637,493.2 L535.809637,594 L546.609637,594 Z M655.509637,594 C658.959637,594 660.609637,592.5 661.359637,591.15 C661.809637,590.25 663.609637,586.05 664.809637,583.35 L642.309637,583.35 L642.309637,546.9 C642.309637,545.55 643.509637,544.35 644.859637,544.35 L649.359637,544.35 C652.809637,544.35 654.309637,542.85 655.059637,541.5 C655.509637,540.6 657.309637,536.25 658.509637,533.55 L642.309637,533.55 L642.309637,502.35 C642.309637,500.85 643.359637,499.8 644.859637,499.8 L653.559637,499.8 C657.009637,499.8 658.659637,498.15 659.259637,496.8 L662.859637,489 L634.809637,489 C633.009637,489 631.659637,490.35 631.509637,492 L631.509637,594 L655.509637,594 Z M727.809637,594 L727.809637,548.85 L733.509637,548.85 C736.359637,548.85 739.059637,550.5 739.059637,555.6 L739.059637,594 L749.859637,594 L749.860538,553.771774 C749.87515,553.259649 750.012269,545.926316 745.959637,543.9 C750.233321,542.868421 749.873949,534.887258 749.860024,534.607534 L749.859637,502.2 C749.859637,494.85 743.859637,489 736.659637,489 L717.009637,489 L717.009637,594 L727.809637,594 Z M733.509637,538.65 L727.809637,538.65 L727.809637,499.05 L733.509637,499.05 C736.359637,499.05 739.059637,500.55 739.059637,504.45 L739.059637,532.65 C739.059637,537.45 736.359637,538.65 733.509637,538.65 Z M828.009637,595.05 C835.209637,594.75 840.909637,589.05 841.059637,581.85 L841.059637,501.3 C841.059637,494.1 835.209637,488.25 828.009637,487.95 L819.759637,487.95 C812.259637,487.95 806.259637,493.95 806.259637,501.3 L806.259637,581.85 C806.409637,589.05 812.409637,595.05 819.759637,595.05 L828.009637,595.05 Z M824.409637,585.6 L822.759637,585.6 C819.609637,585.45 817.059637,582.9 817.059637,579.75 L817.059637,503.25 C817.059637,500.1 819.609637,497.55 822.759637,497.4 L824.409637,497.4 C827.559637,497.4 830.109637,499.95 830.109637,503.25 L830.109637,579.75 C830.109637,583.05 827.559637,585.6 824.409637,585.6 Z" id="SchemaHero" fill="#326DE6" fill-rule="nonzero"></path>
            </g>
        </g>
    </g>
</svg>
