<?xml version="1.0" encoding="UTF-8"?>
<svg width="841px" height="107px" viewBox="0 0 841 107" version="1.1" xmlns="http://www.w3.org/2000/svg" xmlns:xlink="http://www.w3.org/1999/xlink">
    <!-- Generator: Sketch 62 (91390) - https://sketch.com -->
    <title>SchemaHero</title>
    <desc>Created with Sketch.</desc>
    <g id="Page-1" stroke="none" stroke-width="1" fill="none" fill-rule="evenodd">
        <g id="Artboard" transform="translate(-591.000000, -1500.000000)" fill="#000000" fill-rule="nonzero">
            <g id="Group-5-Copy" transform="translate(322.000000, 1443.000000)">
                <path d="M288.808232,164 C296.307701,164 302.307275,158.005602 302.307275,150.662465 L302.30814,137.309584 C302.327435,136.942344 302.615361,130.022295 297.507616,120.690476 L284.60853,96.4131653 C284.60853,96.4131653 279.95886,88.4705882 279.95886,82.3263305 L279.95886,72.2857143 C279.95886,68.9887955 282.508679,66.4411765 285.658456,66.4411765 C288.808232,66.4411765 291.358052,68.9887955 291.358052,72.2857143 L291.358052,84.4243697 C294.20785,83.2254902 298.407552,81.2773109 299.307488,80.8277311 C300.657392,80.0784314 302.307275,78.429972 302.307275,74.9831933 L302.307275,70.9369748 C302.307275,63.7436975 296.45769,57.1498599 289.258201,57 L282.508679,57 C275.009211,57 269.009636,63.5938375 269.009636,70.9369748 L269.008772,81.7422368 C268.989477,82.109477 268.70155,89.0295253 273.809296,98.3613445 L286.708381,122.488796 C286.708381,122.488796 291.358052,130.581232 291.358052,136.72549 L291.358052,148.714286 C291.358052,152.011204 288.808232,154.558824 285.658456,154.558824 C282.508679,154.558824 279.95886,152.011204 279.95886,148.864146 L279.95886,130.581232 C277.259051,131.780112 272.90936,133.728291 272.009424,134.028011 C270.659519,134.777311 269.009636,136.42577 269.009636,139.872549 L269.009636,150.662465 C269.159626,157.855742 274.859222,163.70028 282.058711,164 L288.808232,164 Z M379.551798,164 C386.751287,163.70028 392.450883,157.855742 392.450883,150.662465 L392.450883,125.336134 C389.751074,126.535014 385.551372,128.333333 384.651436,128.782913 C383.301532,129.532213 381.801638,131.180672 381.801638,134.627451 L381.801638,148.714286 C381.801638,152.011204 379.251819,154.558824 375.952053,154.558824 C372.802276,154.558824 370.252457,152.011204 370.252457,148.714286 L370.252457,72.1358543 C370.252457,68.9887955 372.802276,66.4411765 375.952053,66.4411765 C379.251819,66.4411765 381.801638,68.9887955 381.801638,72.1358543 L381.801638,95.6638655 L389.601085,92.0672269 C390.950989,91.4677871 392.450883,89.8193277 392.450883,86.372549 L392.450883,70.337535 C392.450883,63.1442577 386.751287,57.1498599 379.551798,57 L372.952266,57 C365.452797,57 359.453223,62.9943978 359.453223,70.337535 L359.453223,150.662465 C359.453223,158.005602 365.452797,164 372.952266,164 L379.551798,164 Z M458.596192,162.95098 L458.596192,114.845938 L470.295363,114.845938 C471.645267,114.845938 472.695193,115.894958 472.845182,117.243697 L472.845182,162.95098 L483.644416,162.95098 L483.644416,62.245098 C483.644416,60.4467787 482.594491,58.0490196 479.294725,58.0490196 L472.845182,58.0490196 L472.845182,104.205882 L462.345927,104.205882 C459.796107,104.205882 458.596192,103.456583 458.596192,100.459384 L458.596192,58.0490196 L452.14665,58.0490196 C448.846884,58.0490196 447.796958,60.4467787 447.796958,62.245098 L447.796958,162.95098 L458.596192,162.95098 Z M567.488471,162.95098 C570.938226,162.95098 572.588109,161.452381 573.338056,160.103641 C573.788024,159.204482 575.587896,155.008403 576.787811,152.310924 L554.289407,152.310924 L554.289407,115.894958 C554.289407,114.546218 555.489322,113.347339 556.839226,113.347339 L561.338907,113.347339 C564.788662,113.347339 566.288556,111.848739 567.038503,110.5 C567.488471,109.60084 569.288343,105.254902 570.488258,102.557423 L554.289407,102.557423 L554.289407,71.3865546 C554.289407,69.8879552 555.339332,68.8389356 556.839226,68.8389356 L565.538609,68.8389356 C568.988364,68.8389356 570.638247,67.1904762 571.238205,65.8417367 L574.837949,58.0490196 L546.789938,58.0490196 C544.990066,58.0490196 543.640162,59.3977591 543.490172,61.0462185 L543.490172,162.95098 L567.488471,162.95098 Z M634.233738,162.95098 L634.233738,108.851541 L640.533291,136.27591 C641.133248,138.52381 642.333163,144.817927 648.632717,144.817927 L651.932483,144.817927 L660.031908,108.851541 L660.031908,162.95098 L670.681153,162.95098 L670.681153,58.0490196 L664.081621,58.0490196 C660.181898,58.0490196 659.431951,61.3459384 659.281961,61.7955182 L647.432802,122.189076 L634.983684,61.9453782 C634.983684,61.9453782 634.383727,58.0490196 630.184025,58.0490196 L623.584493,58.0490196 L623.584493,162.95098 L634.233738,162.95098 Z M726.177218,162.95098 L735.626548,90.7184874 L745.075878,162.95098 L756.925037,162.95098 L741.776112,63.7436975 C741.326143,60.8963585 740.576197,58.0490196 736.076516,58.0490196 L736.076516,58.0490196 L730.226931,58.0490196 L714.328058,162.95098 L726.177218,162.95098 Z M815.570879,162.95098 L815.570879,114.845938 L827.270049,114.845938 C828.619953,114.845938 829.669879,115.894958 829.819868,117.243697 L829.819868,162.95098 L840.619102,162.95098 L840.619102,62.245098 C840.619102,60.4467787 839.569177,58.0490196 836.269411,58.0490196 L829.819868,58.0490196 L829.819868,104.205882 L819.320613,104.205882 C816.770794,104.205882 815.570879,103.456583 815.570879,100.459384 L815.570879,58.0490196 L809.121336,58.0490196 C805.82157,58.0490196 804.771644,60.4467787 804.771644,62.245098 L804.771644,162.95098 L815.570879,162.95098 Z M924.463157,162.95098 C927.912912,162.95098 929.562795,161.452381 930.312742,160.103641 C930.76271,159.204482 932.562582,155.008403 933.762497,152.310924 L911.264093,152.310924 L911.264093,115.894958 C911.264093,114.546218 912.464008,113.347339 913.813912,113.347339 L918.313593,113.347339 C921.763348,113.347339 923.263242,111.848739 924.013189,110.5 C924.463157,109.60084 926.263029,105.254902 927.462944,102.557423 L911.264093,102.557423 L911.264093,71.3865546 C911.264093,69.8879552 912.314018,68.8389356 913.813912,68.8389356 L922.513295,68.8389356 C925.96305,68.8389356 927.612933,67.1904762 928.212891,65.8417367 L931.812636,58.0490196 L903.764625,58.0490196 C901.964752,58.0490196 900.614848,59.3977591 900.464859,61.0462185 L900.464859,162.95098 L924.463157,162.95098 Z M996.75803,162.95098 L996.75803,117.843137 L1002.45763,117.843137 C1005.30742,117.843137 1008.00723,119.491597 1008.00723,124.586835 L1008.00723,162.95098 L1018.80647,162.95098 L1018.80737,122.760316 C1018.82198,122.248669 1018.95909,114.922183 1014.90674,112.897759 C1019.18012,111.867143 1018.82078,103.893432 1018.80685,103.61397 L1018.80647,71.2366947 C1018.80647,63.8935574 1012.80689,58.0490196 1005.6074,58.0490196 L985.958796,58.0490196 L985.958796,162.95098 L996.75803,162.95098 Z M1002.45763,107.652661 L996.75803,107.652661 L996.75803,68.0896359 L1002.45763,68.0896359 C1005.30742,68.0896359 1008.00723,69.5882353 1008.00723,73.4845938 L1008.00723,101.658263 C1008.00723,106.453782 1005.30742,107.652661 1002.45763,107.652661 Z M1096.95093,164 C1104.15041,163.70028 1109.85001,158.005602 1110,150.812325 L1110,70.337535 C1110,63.1442577 1104.15041,57.2997199 1096.95093,57 L1088.70151,57 C1081.20204,57 1075.20247,62.9943978 1075.20247,70.337535 L1075.20247,150.812325 C1075.35246,158.005602 1081.35203,164 1088.70151,164 L1096.95093,164 Z M1093.35118,154.558824 L1091.7013,154.558824 C1088.55152,154.408964 1086.0017,151.861345 1086.0017,148.714286 L1086.0017,72.2857143 C1086.0017,69.1386555 1088.55152,66.5910364 1091.7013,66.4411765 L1093.35118,66.4411765 C1096.50096,66.4411765 1099.05078,68.9887955 1099.05078,72.2857143 L1099.05078,148.714286 C1099.05078,152.011204 1096.50096,154.558824 1093.35118,154.558824 Z" id="SchemaHero"></path>
            </g>
        </g>
    </g>
</svg>