<?xml version="1.0" encoding="UTF-8"?>
<svg width="1108px" height="201px" viewBox="0 0 1108 201" version="1.1" xmlns="http://www.w3.org/2000/svg" xmlns:xlink="http://www.w3.org/1999/xlink">
    <!-- Generator: Sketch 62 (91390) - https://sketch.com -->
    <title>Group 5 Copy</title>
    <desc>Created with Sketch.</desc>
    <g id="Page-1" stroke="none" stroke-width="1" fill="none" fill-rule="evenodd">
        <g id="Artboard" transform="translate(-324.000000, -1443.000000)">
            <g id="Group-5-Copy" transform="translate(322.000000, 1443.000000)">
                <g id="Group-3-Copy-4">
                    <polygon id="Polygon" fill="#000000" points="105.5 0 187.983221 39.7218259 208.354895 128.975959 151.274734 200.552216 59.7252655 200.552216 2.64510526 128.975959 23.0167786 39.7218259"></polygon>
                    <path d="M98.0028979,2.92921746 L98.4665042,3.11648524 L89.3161548,25.7699583 C89.7109638,26.0098501 90.0297542,26.362393 90.2279121,26.7829732 L125.953139,8.93129348 L126.17664,9.37856016 L90.3924384,27.2593744 C90.4312058,27.4290109 90.4516822,27.6056153 90.4516822,27.7870023 C90.4516822,27.8690992 90.4474875,27.9502164 90.4393009,28.0301512 L153.693115,32.1033725 C153.790296,31.5354256 154.090555,31.036798 154.516497,30.6848864 L147.554387,20.1417488 L147.971619,19.866218 L154.933451,30.4089541 C155.187779,30.2770604 155.469172,30.1901188 155.767109,30.1586503 L155.76772,24.0867577 L156.26772,24.0867577 L156.267889,30.1586038 C157.230512,30.2600944 158.020506,30.9406676 158.283064,31.8455156 L169.181319,29.899386 L169.269215,30.3915998 L158.370424,32.3374743 C158.37426,32.392479 158.37621,32.4480035 158.37621,32.5039834 C158.37621,33.072693 158.17492,33.5943888 157.839698,34.0017121 L180.968024,57.5421798 C181.370359,57.2229486 181.879321,57.0322853 182.432814,57.0322853 C182.683645,57.0322853 182.92533,57.0714417 183.15209,57.1439753 L188.575099,43.6668211 L189.038959,43.8534602 L183.609471,57.3463141 C184.315853,57.7537385 184.791305,58.5167333 184.791305,59.3907759 C184.791305,59.4025016 184.791219,59.4142073 184.791049,59.4258924 L192.985114,60.4599196 L192.922503,60.9559839 L184.731142,59.9224096 C184.621776,60.3971327 184.369114,60.8170808 184.021147,61.1342644 L197.467801,80.6820692 L197.055858,80.9654483 L183.617317,61.4306919 C183.440776,61.5334245 183.249682,61.6138962 183.047883,61.6682617 L190.330007,107.508217 L190.451682,107.503983 C191.669739,107.503983 192.672131,108.427356 192.797062,109.612305 L203.748734,109.612474 L203.748734,110.112474 L192.797015,110.113085 C192.704248,110.991388 192.129394,111.72592 191.341999,112.047136 L199.398941,139.981872 L198.918524,140.120434 L190.862302,112.185345 C190.728951,112.208756 190.591742,112.220965 190.451682,112.220965 C190.231266,112.220965 190.017912,112.190728 189.815542,112.134177 L170.325439,161.077656 C170.781332,161.318514 171.148766,161.704397 171.366321,162.173886 L184.89786,157.58585 L185.058428,158.059367 L171.526946,162.64749 C171.564137,162.813831 171.583758,162.986805 171.583758,163.164361 C171.583758,163.636284 171.445151,164.075833 171.206427,164.444521 L176.401258,168.644481 L176.086905,169.033303 L170.892001,164.833035 C170.520783,165.203825 170.026593,165.451527 169.475878,165.509694 L169.475267,177.930241 L168.975267,177.930241 L168.975098,165.50974 C168.27177,165.435588 167.660597,165.052303 167.279965,164.498274 L143.158161,175.616093 C143.238379,175.853363 143.281871,176.107557 143.281871,176.371908 C143.281871,176.999998 143.036352,177.570743 142.636051,177.993408 L156.207846,193.888257 L155.827594,194.212923 L142.256395,178.317826 C141.928207,178.543077 141.540172,178.687459 141.121025,178.722235 L140.639842,199.922881 L140.13997,199.911555 L140.620256,178.7111 C140.015776,178.633542 139.482902,178.327146 139.111284,177.881564 L105.727774,200.164748 L105.45019,199.748879 L138.8335,177.466048 C138.733146,177.274759 138.658285,177.067997 138.613432,176.850276 L56.9610396,184.881671 C56.9564629,185.455752 56.7467789,185.980971 56.4016648,186.387651 L69.1703852,199.784329 L68.8084508,200.129298 L56.0399054,186.73257 C55.6419952,187.038843 55.1435788,187.220965 54.6026256,187.220965 L54.6380069,187.219217 L53.9983942,193.162707 L53.5012644,193.10921 L54.140197,187.175648 C53.1390348,186.976621 52.3661645,186.143864 52.2572925,185.113085 L47.7175943,185.112474 L47.7175943,184.612474 L52.2572459,184.612305 C52.3393183,183.833861 52.8000798,183.168307 53.4518986,182.803275 L22.2751112,109.759523 C22.0564708,109.826458 21.8243202,109.862474 21.5837576,109.862474 C20.983298,109.862474 20.4352481,109.638081 20.0188897,109.268577 L4.11178555,123.764036 L3.7750069,123.394469 L19.6816389,108.898676 C19.3947359,108.50805 19.2252671,108.025808 19.2252671,107.503983 C19.2252671,107.386683 19.2338304,107.271383 19.2503659,107.158674 L8.27162723,104.317552 L8.39688247,103.833495 L19.3754398,106.674029 C19.6366487,105.979345 20.2162541,105.440542 20.9364424,105.235433 L15.3327701,72.9045527 L15.825424,72.819159 L21.4290069,105.150217 L21.5837576,105.145493 C21.9308723,105.145493 22.2604727,105.22048 22.5572431,105.355139 L48.4809812,61.2855314 C48.0152408,60.9396902 47.6814246,60.4261987 47.5687964,59.8343204 L18.1558157,62.2742715 L18.1144726,61.7759837 L47.5277934,59.3353064 C47.5435935,58.6507002 47.8511121,58.0381974 48.3308815,57.617266 L32.4649283,35.0959001 L32.8736849,34.8079451 L48.7399072,57.32879 C49.0791325,57.1398968 49.4698214,57.0322853 49.8856444,57.0322853 C49.9433527,57.0322853 50.0005769,57.0343579 50.0572467,57.0384328 L56.1537116,23.3614828 L56.6457153,23.4505468 L50.549933,57.1271285 C50.9296429,57.238376 51.2696401,57.4425673 51.5436211,57.7133992 L86.2893885,29.3065478 C85.9432802,28.8961157 85.734701,28.3659171 85.734701,27.7870023 C85.734701,27.2400588 85.9208783,26.7365993 86.233316,26.3365406 L75.8736635,14.0329437 L76.256116,13.7108722 L86.5839541,25.9745566 C86.9929373,25.6336217 87.5191115,25.4285117 88.0931916,25.4285117 C88.3627119,25.4285117 88.6216731,25.4737207 88.8629055,25.556969 L98.0028979,2.92921746 Z M100.066696,159.582532 C99.6655468,160.311731 98.8899056,160.80587 97.998852,160.80587 C97.2423014,160.80587 96.5689503,160.449651 96.1373738,159.895787 L56.880646,184.249393 C56.8925658,184.293794 56.903222,184.338712 56.9125738,184.384106 L138.564966,176.352711 C138.566775,176.125835 138.600618,175.906591 138.662193,175.699279 Z M63.1926909,141.323352 C62.7733414,141.976729 62.0404266,142.409644 61.2063992,142.409644 C61.1759123,142.409644 61.1455606,142.409065 61.1153543,142.407919 L55.2588688,182.596485 C55.8834667,182.777054 56.401426,183.208873 56.6961895,183.775384 L95.8731743,159.470381 C95.723977,159.160933 95.6403614,158.813921 95.6403614,158.44738 C95.6403614,158.156657 95.692963,157.87822 95.789168,157.621068 Z M23.2368493,109.186175 C23.0875358,109.332922 22.9187731,109.459942 22.7347823,109.563016 L53.911272,182.606934 C54.1299124,182.54 54.362063,182.503983 54.6026256,182.503983 C54.6575858,182.503983 54.712107,182.505863 54.7661283,182.509562 L60.619951,142.336156 C59.6011076,142.075444 58.8479086,141.151258 58.8479086,140.051153 C58.8479086,139.572446 58.9905289,139.12705 59.2355969,138.755137 Z M115.866097,107.44443 L99.0012749,156.311903 C99.8025935,156.688707 100.357343,157.503259 100.357343,158.44738 C100.357343,158.681087 100.32335,158.906855 100.260039,159.120009 L138.855857,175.236173 C139.096003,174.799934 139.470199,174.447875 139.922946,174.235497 L116.922706,107.44474 C116.75307,107.483507 116.576465,107.503983 116.395078,107.503983 C116.213209,107.503983 116.036148,107.483398 115.866097,107.44443 Z M154.331858,137.595359 C154.118705,137.65867 153.892937,137.692663 153.659229,137.692663 C153.558927,137.692663 153.460087,137.686401 153.363079,137.674248 L141.864692,174.208755 C142.317692,174.406156 142.696657,174.741686 142.948385,175.162143 L167.041086,164.055857 C166.928712,163.780822 166.866777,163.479824 166.866777,163.164361 C166.866777,162.403645 167.226929,161.727048 167.786025,161.295777 Z M117.676232,107.126009 C117.586536,107.184151 117.492641,107.236365 117.395102,107.282096 L140.395752,174.072661 C140.565389,174.033894 140.741993,174.013417 140.92338,174.013417 C141.082699,174.013417 141.238327,174.029214 141.388786,174.059327 L152.876423,137.559644 C151.958638,137.236823 151.300739,136.362328 151.300739,135.334172 C151.300739,134.870305 151.434653,134.437716 151.665932,134.072955 Z M160.558136,99.0069078 L154.327816,133.071789 C155.304743,133.360041 156.01772,134.263844 156.01772,135.334172 C156.01772,136.224011 155.524927,136.998751 154.797363,137.400373 L168.211923,161.034054 C168.353744,160.966472 168.503376,160.912635 168.659096,160.874266 L160.724593,99.0133962 C160.668626,99.0131613 160.613119,99.0109771 160.558136,99.0069078 Z M162.540167,98.1724981 C162.207323,98.5680736 161.74686,98.8527094 161.222209,98.9629731 L169.154007,160.808217 L169.225267,160.80587 C169.445314,160.80587 169.658322,160.836005 169.86039,160.892373 L189.351185,111.949007 C188.603031,111.553592 188.093192,110.767573 188.093192,109.862474 C188.093192,109.620811 188.129538,109.387638 188.197062,109.168122 Z M114.559505,106.626549 L63.5150959,139.566751 C63.5477331,139.723094 63.5648897,139.88512 63.5648897,140.051153 C63.5648897,140.341496 63.5124254,140.619586 63.4164597,140.876458 L96.0125603,157.17518 C96.4319097,156.521804 97.1648245,156.088889 97.998852,156.088889 C98.1807213,156.088889 98.3577827,156.109475 98.5278331,156.148443 L115.392656,107.280969 C115.067466,107.128056 114.782884,106.90305 114.559505,106.626549 Z M82.1188451,90.2843103 C81.7114355,90.990749 80.9484089,91.4662476 80.0743237,91.4662476 C79.8723265,91.4662476 79.6762604,91.4408535 79.4891437,91.3930836 L62.1507375,137.889322 C62.683501,138.122374 63.113548,138.546595 63.3541459,139.075252 L114.288548,106.20729 C114.127376,105.888164 114.036588,105.527431 114.036588,105.145493 C114.036588,104.894662 114.075744,104.652977 114.148278,104.426217 Z M48.9111577,61.5391658 L22.9874257,105.608489 C23.5667721,106.03822 23.9422482,106.727253 23.9422482,107.503983 C23.9422482,107.981843 23.8001327,108.426509 23.5558613,108.798023 L59.5533075,138.368962 C59.8479178,138.079416 60.2182462,137.866666 60.6318678,137.763135 L49.9630069,61.7462175 L49.8856444,61.7492664 C49.5381394,61.7492664 49.2081879,61.6741104 48.9111577,61.5391658 Z M51.3933174,61.2045247 C51.1258387,61.4271101 50.8083451,61.5916464 50.4601758,61.6787944 L61.1280069,137.694217 L61.2063992,137.692663 C61.3660676,137.692663 61.5220302,137.708529 61.6727964,137.738771 L79.020548,91.2183194 C78.2469785,90.8313351 77.7158331,90.0315739 77.7158331,89.107757 C77.7158331,88.4599316 77.9770238,87.8731105 78.3998427,87.4468561 Z M158.481005,97.3522763 L118.745553,104.949638 C118.750862,105.01422 118.753569,105.079541 118.753569,105.145493 C118.753569,105.790851 118.494364,106.375669 118.074383,106.801517 L151.977038,133.68108 C152.404935,133.245698 153.000549,132.975682 153.659229,132.975682 C153.718281,132.975682 153.776827,132.977852 153.834789,132.982117 L160.066114,98.9173104 C159.310766,98.694437 158.713212,98.1035748 158.481005,97.3522763 Z M181.533439,61.5717206 L162.138369,94.7594327 C162.717715,95.189163 163.093192,95.8781963 163.093192,96.6549268 C163.093192,97.0502306 162.995938,97.4228197 162.824053,97.750073 L188.394315,108.708482 C188.701048,108.162803 189.218592,107.751508 189.836535,107.585009 L182.553007,61.7452175 L182.432814,61.7492664 C182.114336,61.7492664 181.810601,61.6861414 181.533439,61.5717206 Z M129.54093,61.3225464 C129.157838,61.5914375 128.691116,61.7492664 128.187531,61.7492664 C128.070581,61.7492664 127.955619,61.7407542 127.843231,61.7243155 L117.222034,102.93605 C117.905237,103.191875 118.43811,103.755511 118.651839,104.45814 L158.38499,96.859859 C158.379177,96.7923216 158.37621,96.7239707 158.37621,96.6549268 C158.37621,96.0386786 158.612559,95.4776325 158.999555,95.05749 Z M126.323626,60.8360633 L82.2013126,88.0874798 C82.3496885,88.39624 82.4328142,88.742291 82.4328142,89.107757 C82.4328142,89.3582208 82.3937723,89.5995658 82.3214422,89.8260383 L114.350617,103.968836 C114.758041,103.262454 115.521036,102.787002 116.395078,102.787002 C116.511678,102.787002 116.626302,102.795464 116.738369,102.811806 L127.359205,61.5997054 C126.946761,61.4449712 126.589176,61.1780324 126.323626,60.8360633 Z M180.087329,59.6399428 L130.532911,59.6409453 C130.478119,60.1606386 130.254546,60.6300173 129.918023,60.9932516 L159.374543,94.7279185 C159.758898,94.4561297 160.228151,94.2964363 160.734701,94.2964363 C161.081425,94.2964363 161.410675,94.3712549 161.707185,94.505628 L181.092821,61.3318868 C180.541807,60.9507872 180.160953,60.3411162 180.087329,59.6399428 Z M89.7906958,29.4243687 C89.3617538,29.868965 88.759766,30.1454929 88.0931916,30.1454929 C88.082471,30.1454929 88.071767,30.1454213 88.0610802,30.1452787 L80.6269454,86.8143664 C81.1552337,86.941204 81.6143377,87.2458388 81.9374363,87.6614496 L126.059592,60.4090733 C125.911812,60.1008139 125.829041,59.755461 125.829041,59.3907759 C125.829041,58.928822 125.961853,58.4978882 126.191377,58.1340752 Z M86.6539333,29.6555737 L51.8589117,58.098508 C52.1024708,58.4696636 52.244135,58.913676 52.244135,59.3907759 C52.244135,59.9395389 52.056717,60.4445281 51.7423977,60.8452267 L78.7891989,87.1298208 C79.1589024,86.8891212 79.6002806,86.7492664 80.0743237,86.7492664 C80.0932013,86.7492664 80.1120272,86.7494882 80.1307988,86.7499293 L87.5652187,30.0861702 C87.2282406,30.0091063 86.9187674,29.8598628 86.6539333,29.6555737 Z M154.504486,34.3130905 L130.048263,57.9414113 C130.311863,58.2793452 130.485418,58.6909507 130.532864,59.1401651 L180.087481,59.1401651 C180.137263,58.6688399 180.325873,58.2389171 180.611656,57.8920507 L157.483321,34.3519359 C157.08086,34.6715544 156.571586,34.862474 156.01772,34.862474 C155.441768,34.862474 154.914035,34.6560246 154.504486,34.3130905 Z M90.3341966,28.5241493 C90.2754444,28.7028675 90.1959095,28.8721551 90.0984511,29.0291531 L126.500539,57.7425831 C126.928776,57.3043284 127.526384,57.0322853 128.187531,57.0322853 C128.763199,57.0322853 129.290695,57.2385312 129.700159,57.5811618 L154.156988,33.953348 C153.845066,33.5534661 153.659229,33.0504271 153.659229,32.5039834 L153.662007,32.6022175 Z" id="Combined-Shape" fill="#FFFFFF"></path>
                </g>
                <path d="M288.808232,164 C296.307701,164 302.307275,158.005602 302.307275,150.662465 L302.30814,137.309584 C302.327435,136.942344 302.615361,130.022295 297.507616,120.690476 L284.60853,96.4131653 C284.60853,96.4131653 279.95886,88.4705882 279.95886,82.3263305 L279.95886,72.2857143 C279.95886,68.9887955 282.508679,66.4411765 285.658456,66.4411765 C288.808232,66.4411765 291.358052,68.9887955 291.358052,72.2857143 L291.358052,84.4243697 C294.20785,83.2254902 298.407552,81.2773109 299.307488,80.8277311 C300.657392,80.0784314 302.307275,78.429972 302.307275,74.9831933 L302.307275,70.9369748 C302.307275,63.7436975 296.45769,57.1498599 289.258201,57 L282.508679,57 C275.009211,57 269.009636,63.5938375 269.009636,70.9369748 L269.008772,81.7422368 C268.989477,82.109477 268.70155,89.0295253 273.809296,98.3613445 L286.708381,122.488796 C286.708381,122.488796 291.358052,130.581232 291.358052,136.72549 L291.358052,148.714286 C291.358052,152.011204 288.808232,154.558824 285.658456,154.558824 C282.508679,154.558824 279.95886,152.011204 279.95886,148.864146 L279.95886,130.581232 C277.259051,131.780112 272.90936,133.728291 272.009424,134.028011 C270.659519,134.777311 269.009636,136.42577 269.009636,139.872549 L269.009636,150.662465 C269.159626,157.855742 274.859222,163.70028 282.058711,164 L288.808232,164 Z M379.551798,164 C386.751287,163.70028 392.450883,157.855742 392.450883,150.662465 L392.450883,125.336134 C389.751074,126.535014 385.551372,128.333333 384.651436,128.782913 C383.301532,129.532213 381.801638,131.180672 381.801638,134.627451 L381.801638,148.714286 C381.801638,152.011204 379.251819,154.558824 375.952053,154.558824 C372.802276,154.558824 370.252457,152.011204 370.252457,148.714286 L370.252457,72.1358543 C370.252457,68.9887955 372.802276,66.4411765 375.952053,66.4411765 C379.251819,66.4411765 381.801638,68.9887955 381.801638,72.1358543 L381.801638,95.6638655 L389.601085,92.0672269 C390.950989,91.4677871 392.450883,89.8193277 392.450883,86.372549 L392.450883,70.337535 C392.450883,63.1442577 386.751287,57.1498599 379.551798,57 L372.952266,57 C365.452797,57 359.453223,62.9943978 359.453223,70.337535 L359.453223,150.662465 C359.453223,158.005602 365.452797,164 372.952266,164 L379.551798,164 Z M458.596192,162.95098 L458.596192,114.845938 L470.295363,114.845938 C471.645267,114.845938 472.695193,115.894958 472.845182,117.243697 L472.845182,162.95098 L483.644416,162.95098 L483.644416,62.245098 C483.644416,60.4467787 482.594491,58.0490196 479.294725,58.0490196 L472.845182,58.0490196 L472.845182,104.205882 L462.345927,104.205882 C459.796107,104.205882 458.596192,103.456583 458.596192,100.459384 L458.596192,58.0490196 L452.14665,58.0490196 C448.846884,58.0490196 447.796958,60.4467787 447.796958,62.245098 L447.796958,162.95098 L458.596192,162.95098 Z M567.488471,162.95098 C570.938226,162.95098 572.588109,161.452381 573.338056,160.103641 C573.788024,159.204482 575.587896,155.008403 576.787811,152.310924 L554.289407,152.310924 L554.289407,115.894958 C554.289407,114.546218 555.489322,113.347339 556.839226,113.347339 L561.338907,113.347339 C564.788662,113.347339 566.288556,111.848739 567.038503,110.5 C567.488471,109.60084 569.288343,105.254902 570.488258,102.557423 L554.289407,102.557423 L554.289407,71.3865546 C554.289407,69.8879552 555.339332,68.8389356 556.839226,68.8389356 L565.538609,68.8389356 C568.988364,68.8389356 570.638247,67.1904762 571.238205,65.8417367 L574.837949,58.0490196 L546.789938,58.0490196 C544.990066,58.0490196 543.640162,59.3977591 543.490172,61.0462185 L543.490172,162.95098 L567.488471,162.95098 Z M634.233738,162.95098 L634.233738,108.851541 L640.533291,136.27591 C641.133248,138.52381 642.333163,144.817927 648.632717,144.817927 L651.932483,144.817927 L660.031908,108.851541 L660.031908,162.95098 L670.681153,162.95098 L670.681153,58.0490196 L664.081621,58.0490196 C660.181898,58.0490196 659.431951,61.3459384 659.281961,61.7955182 L647.432802,122.189076 L634.983684,61.9453782 C634.983684,61.9453782 634.383727,58.0490196 630.184025,58.0490196 L623.584493,58.0490196 L623.584493,162.95098 L634.233738,162.95098 Z M726.177218,162.95098 L735.626548,90.7184874 L745.075878,162.95098 L756.925037,162.95098 L741.776112,63.7436975 C741.326143,60.8963585 740.576197,58.0490196 736.076516,58.0490196 L736.076516,58.0490196 L730.226931,58.0490196 L714.328058,162.95098 L726.177218,162.95098 Z M815.570879,162.95098 L815.570879,114.845938 L827.270049,114.845938 C828.619953,114.845938 829.669879,115.894958 829.819868,117.243697 L829.819868,162.95098 L840.619102,162.95098 L840.619102,62.245098 C840.619102,60.4467787 839.569177,58.0490196 836.269411,58.0490196 L829.819868,58.0490196 L829.819868,104.205882 L819.320613,104.205882 C816.770794,104.205882 815.570879,103.456583 815.570879,100.459384 L815.570879,58.0490196 L809.121336,58.0490196 C805.82157,58.0490196 804.771644,60.4467787 804.771644,62.245098 L804.771644,162.95098 L815.570879,162.95098 Z M924.463157,162.95098 C927.912912,162.95098 929.562795,161.452381 930.312742,160.103641 C930.76271,159.204482 932.562582,155.008403 933.762497,152.310924 L911.264093,152.310924 L911.264093,115.894958 C911.264093,114.546218 912.464008,113.347339 913.813912,113.347339 L918.313593,113.347339 C921.763348,113.347339 923.263242,111.848739 924.013189,110.5 C924.463157,109.60084 926.263029,105.254902 927.462944,102.557423 L911.264093,102.557423 L911.264093,71.3865546 C911.264093,69.8879552 912.314018,68.8389356 913.813912,68.8389356 L922.513295,68.8389356 C925.96305,68.8389356 927.612933,67.1904762 928.212891,65.8417367 L931.812636,58.0490196 L903.764625,58.0490196 C901.964752,58.0490196 900.614848,59.3977591 900.464859,61.0462185 L900.464859,162.95098 L924.463157,162.95098 Z M996.75803,162.95098 L996.75803,117.843137 L1002.45763,117.843137 C1005.30742,117.843137 1008.00723,119.491597 1008.00723,124.586835 L1008.00723,162.95098 L1018.80647,162.95098 L1018.80737,122.760316 C1018.82198,122.248669 1018.95909,114.922183 1014.90674,112.897759 C1019.18012,111.867143 1018.82078,103.893432 1018.80685,103.61397 L1018.80647,71.2366947 C1018.80647,63.8935574 1012.80689,58.0490196 1005.6074,58.0490196 L985.958796,58.0490196 L985.958796,162.95098 L996.75803,162.95098 Z M1002.45763,107.652661 L996.75803,107.652661 L996.75803,68.0896359 L1002.45763,68.0896359 C1005.30742,68.0896359 1008.00723,69.5882353 1008.00723,73.4845938 L1008.00723,101.658263 C1008.00723,106.453782 1005.30742,107.652661 1002.45763,107.652661 Z M1096.95093,164 C1104.15041,163.70028 1109.85001,158.005602 1110,150.812325 L1110,70.337535 C1110,63.1442577 1104.15041,57.2997199 1096.95093,57 L1088.70151,57 C1081.20204,57 1075.20247,62.9943978 1075.20247,70.337535 L1075.20247,150.812325 C1075.35246,158.005602 1081.35203,164 1088.70151,164 L1096.95093,164 Z M1093.35118,154.558824 L1091.7013,154.558824 C1088.55152,154.408964 1086.0017,151.861345 1086.0017,148.714286 L1086.0017,72.2857143 C1086.0017,69.1386555 1088.55152,66.5910364 1091.7013,66.4411765 L1093.35118,66.4411765 C1096.50096,66.4411765 1099.05078,68.9887955 1099.05078,72.2857143 L1099.05078,148.714286 C1099.05078,152.011204 1096.50096,154.558824 1093.35118,154.558824 Z" id="SchemaHero" fill="#000000" fill-rule="nonzero"></path>
            </g>
        </g>
    </g>
</svg>