<?xml version="1.0" encoding="UTF-8"?>
<svg width="437px" height="425px" viewBox="0 0 437 425" version="1.1" xmlns="http://www.w3.org/2000/svg" xmlns:xlink="http://www.w3.org/1999/xlink">
    <!-- Generator: Sketch 62 (91390) - https://sketch.com -->
    <title>Group 3 Copy 4</title>
    <desc>Created with Sketch.</desc>
    <g id="Page-1" stroke="none" stroke-width="1" fill="none" fill-rule="evenodd">
        <g id="Artboard" transform="translate(-660.000000, -1722.000000)">
            <g id="Group-4-Copy" transform="translate(458.000000, 1722.000000)">
                <g id="Group-3-Copy-4" transform="translate(197.000000, 0.000000)">
                    <polygon id="Polygon" fill="#000000" points="223.5 0 398.239336 84.1500293 441.396388 273.233429 320.473016 424.866542 126.526984 424.866542 5.60361163 273.233429 48.7606637 84.1500293"></polygon>
                    <path d="M207.66582,6.31395699 L208.129312,6.50150629 L188.744805,54.407845 C189.777219,54.9567983 190.594022,55.8566008 191.03555,56.9478668 L266.785972,19.1613201 L267.00916,19.6087428 L191.200515,57.4239831 C191.328803,57.8658285 191.397566,58.3329269 191.397566,58.8160576 C191.397566,59.0854008 191.376195,59.349761 191.335052,59.6075407 L325.429855,68.2282297 C325.591062,66.8136001 326.344669,65.5784269 327.436975,64.7759656 L312.689061,42.4828025 L313.106072,42.2069364 L327.854176,64.5004175 C328.532031,64.0998429 329.312827,63.8545109 330.147436,63.8134637 L330.147566,50.9852371 L330.647566,50.9852371 L330.647542,63.8134561 C332.910883,63.9247011 334.778499,65.538288 335.270637,67.6761726 L358.353693,63.5612066 L358.441439,64.0534469 L335.358078,68.1682818 C335.384138,68.3747251 335.397566,68.5850951 335.397566,68.7985959 C335.397566,70.1029134 334.89639,71.2903794 334.075788,72.1795603 L383.076714,121.967613 C383.959801,121.183874 385.122989,120.707795 386.397566,120.707795 C387.028243,120.707795 387.631648,120.824358 388.18734,121.03708 L399.679028,92.5265203 L400.142774,92.7134403 L388.644774,121.239103 C390.277579,122.060553 391.397566,123.749243 391.397566,125.699064 C391.397566,125.818386 391.393372,125.93673 391.385122,126.053956 L408.733325,128.238562 L408.670822,128.73464 L391.325326,126.54923 C391.116658,127.763091 390.468855,128.827171 389.551006,129.572677 L418.040934,170.915788 L417.629223,171.199503 L389.148011,129.867967 C388.633454,130.206946 388.052438,130.45354 387.428672,130.584083 L402.859826,227.549484 C403.036484,227.530627 403.215894,227.520955 403.397566,227.520955 C406.075115,227.520955 408.261096,229.621933 408.391419,232.262531 L431.587316,232.262224 L431.587316,232.762224 L408.391369,232.762922 C408.288319,234.84248 406.910324,236.587204 405.021459,237.234353 L422.096688,296.331076 L421.616336,296.469862 L404.542016,237.372139 C404.174481,237.458053 403.791339,237.503493 403.397566,237.503493 C402.831786,237.503493 402.287954,237.409684 401.780827,237.236798 L360.478061,340.774915 C361.646328,341.309287 362.572672,342.279807 363.047973,343.47772 L391.713507,333.773366 L391.873824,334.246968 L363.208378,343.950208 C363.331611,344.383955 363.397566,344.841742 363.397566,345.314906 C363.397566,346.413852 363.04179,347.429848 362.438945,348.254375 L373.434463,357.129361 L373.120442,357.518451 L362.123479,348.643457 C361.259814,349.606197 360.027198,350.232235 358.647542,350.300046 L358.647566,376.563911 L358.147566,376.563911 L358.147436,350.300039 C356.438868,350.216009 354.955822,349.275861 354.119776,347.900336 L303.038799,371.405873 C303.270217,371.980735 303.397566,372.608528 303.397566,373.266014 C303.397566,374.695492 302.795591,375.984616 301.830894,376.894551 L330.587552,410.516878 L330.20758,410.841872 L301.449952,377.219576 C300.605501,377.870227 299.546814,378.257283 298.397566,378.257283 L298.533772,378.253957 L297.516536,423.100582 L297.016665,423.089236 L298.034048,378.244293 C296.539358,378.137088 295.226587,377.374011 294.383043,376.241868 L223.627266,423.386752 L223.350018,422.970658 L294.104736,375.826536 C293.775737,375.278061 293.54923,374.661287 293.451631,374.002587 L120.39191,390.995046 C120.395667,391.07442 120.397566,391.15428 120.397566,391.234583 C120.397566,392.566356 119.875068,393.776307 119.023544,394.671301 L146.078383,423.006063 L145.71675,423.351347 L118.66156,395.015736 C117.785686,395.769855 116.644971,396.225852 115.397566,396.225852 C115.328581,396.225852 115.259922,396.224457 115.191616,396.221694 L113.838198,408.770536 L113.341078,408.716947 L114.692802,396.176655 C112.345827,395.846135 110.522394,393.888958 110.403714,391.484276 L100.8013,391.484583 L100.8013,390.984583 L110.403756,390.984044 C110.496118,389.118966 111.613997,387.523197 113.206201,386.746964 L47.1274415,232.205427 C46.5883838,232.403862 46.0056518,232.512224 45.3975662,232.512224 C44.0233695,232.512224 42.778654,231.958817 41.8748641,231.063078 L8.16822849,261.725946 L7.83177151,261.356086 L41.5380858,230.694368 C40.8255482,229.8318 40.3975662,228.72627 40.3975662,227.520955 C40.3975662,227.176203 40.4325797,226.839616 40.4992506,226.514542 L17.2460952,220.507367 L17.3711454,220.023257 L40.6247159,226.029152 C41.1530327,224.34303 42.5532382,223.041508 44.2983012,222.650699 L32.4213713,154.250655 L32.9140001,154.165116 L44.7909703,222.566045 C44.9898082,222.54204 45.1922419,222.529686 45.3975662,222.529686 C46.233461,222.529686 47.0214473,222.734448 47.7139364,223.096467 L102.649119,129.869282 C101.467172,129.09145 100.635481,127.826329 100.441075,126.360446 L38.1071413,131.523285 L38.0658698,131.024991 L100.400772,125.860957 L100.397566,125.699064 C100.397566,124.102689 101.148313,122.681354 102.316588,121.767698 L68.6946703,74.1233106 L69.1031897,73.8350193 L102.725858,121.479341 C103.498717,120.990693 104.415047,120.707795 105.397566,120.707795 C105.615573,120.707795 105.830322,120.721723 106.040967,120.748736 L118.961404,49.4999747 L119.453381,49.5891895 L106.532991,120.837048 C107.541422,121.070796 108.432831,121.609124 109.104671,122.349664 L182.760093,62.2406537 C181.915364,61.3468714 181.397566,60.141828 181.397566,58.8160576 C181.397566,57.555938 181.865352,56.4048849 182.637031,55.5265056 L160.706479,29.5287701 L161.088654,29.2063693 L182.987305,55.1658996 C183.880554,54.3339097 185.0795,53.8247885 186.397566,53.8247885 C187.067822,53.8247885 187.707275,53.9564407 188.291392,54.1952538 L207.66582,6.31395699 Z M211.910521,337.483797 C211.105537,339.163455 209.387276,340.323637 207.397566,340.323637 C205.693542,340.323637 204.188613,339.472699 203.285939,338.173277 L120.144053,389.661129 C120.233554,389.930315 120.300719,390.209671 120.343353,390.497009 L293.403228,373.505657 C293.399468,373.426248 293.397566,373.346352 293.397566,373.266014 C293.397566,372.672453 293.501356,372.103091 293.691807,371.575026 Z M133.75259,298.854335 C132.894179,300.369233 131.265491,301.391738 129.397566,301.391738 C129.237831,301.391738 129.079846,301.384261 128.923942,301.369638 L116.516932,386.368872 C118.055825,386.72021 119.324133,387.780364 119.95877,389.18688 L203.021075,337.747957 C202.623773,337.032179 202.397566,336.208644 202.397566,335.332368 C202.397566,334.618845 202.547548,333.940291 202.817759,333.326408 Z M49.0974752,230.878269 C48.6731206,231.34402 48.1617188,231.729328 47.5889316,232.008574 L113.66669,386.550479 C114.206027,386.351809 114.789104,386.243313 115.397566,386.243313 C115.609746,386.243313 115.818839,386.256507 116.024067,386.282116 L128.429922,301.298339 C126.13158,300.848439 124.397566,298.826601 124.397566,296.400469 C124.397566,295.28726 124.762637,294.25917 125.379784,293.428994 Z M245.004054,227.324536 L209.264066,330.700487 C211.100961,331.438809 212.397566,333.234434 212.397566,335.332368 C212.397566,335.925551 212.293909,336.494566 212.103689,337.022347 L293.884793,371.114206 C294.423497,369.990404 295.371046,369.099188 296.535181,368.632481 L247.788088,227.325399 C247.346647,227.452724 246.880089,227.520955 246.397566,227.520955 C245.913954,227.520955 245.446377,227.452415 245.004054,227.324536 Z M327.094343,291.114454 C326.564559,291.305221 325.993226,291.4092 325.397566,291.4092 C325.088284,291.4092 324.78556,291.381167 324.491806,291.327509 L300.135449,368.584497 C301.299197,369.01516 302.258643,369.865876 302.829004,370.952183 L353.881461,347.459747 C353.571221,346.809959 353.397566,346.082677 353.397566,345.314906 C353.397566,343.604736 354.25916,342.09545 355.572668,341.196014 Z M249.356144,226.553794 C249.020581,226.800058 248.653092,227.005501 248.261025,227.162788 L297.007045,368.4703 C297.448485,368.342975 297.915044,368.274744 298.397566,368.274744 C298.833223,368.274744 299.255865,368.330365 299.658757,368.43488 L324.004054,291.212781 C321.920711,290.61047 320.397566,288.691764 320.397566,286.417931 C320.397566,285.33588 320.742487,284.334249 321.328559,283.516626 Z M339.74409,209.510142 L326.543018,281.55825 C328.7524,282.075191 330.397566,284.054772 330.397566,286.417931 C330.397566,288.401272 329.238738,290.114428 327.56011,290.919486 L355.998873,340.93444 C356.451546,340.686902 356.946775,340.507251 357.470815,340.409208 L340.657557,209.545754 C340.571451,209.550157 340.484769,209.552386 340.397566,209.552386 C340.176082,209.552386 339.957961,209.53801 339.74409,209.510142 Z M344.405326,207.546027 C343.636798,208.572646 342.481725,209.2941 341.155453,209.495417 L357.966147,340.341958 C358.108338,340.329827 358.252228,340.323637 358.397566,340.323637 C358.963057,340.323637 359.506621,340.41735 360.013526,340.590066 L401.317071,237.052215 C399.594272,236.264197 398.397566,234.527719 398.397566,232.512224 C398.397566,231.902416 398.507115,231.318151 398.70764,230.777969 Z M242.337037,225.442782 L134.222711,295.087275 C134.336718,295.505703 134.397566,295.945992 134.397566,296.400469 C134.397566,297.113992 134.247584,297.792546 133.977374,298.406428 L203.042139,332.879213 C203.900443,331.363925 205.529349,330.341099 207.397566,330.341099 C207.881179,330.341099 208.348755,330.409639 208.791079,330.537518 L244.531147,227.161599 C243.646192,226.805918 242.886632,226.204839 242.337037,225.442782 Z M173.865777,190.831451 C173.043056,192.461886 171.351152,193.580324 169.397566,193.580324 C168.870716,193.580324 168.362897,193.498981 167.886026,193.348189 L131.13845,291.720063 C132.47718,292.216462 133.545177,293.268854 134.06089,294.59618 L242.064914,225.02262 C241.640455,224.289082 241.397566,223.437699 241.397566,222.529686 C241.397566,221.900486 241.514194,221.298478 241.727046,220.74403 Z M103.079688,130.122764 L48.1440722,223.34946 C49.5015851,224.241929 50.3975662,225.776991 50.3975662,227.520955 C50.3975662,228.633868 50.0326889,229.661709 49.4158387,230.49177 L125.697657,293.043155 C126.411466,292.259712 127.371572,291.703884 128.45584,291.497596 L105.84407,130.670703 C105.696973,130.683697 105.548046,130.690333 105.397566,130.690333 C104.561065,130.690333 103.772541,130.485274 103.079688,130.122764 Z M108.804651,129.352178 C108.130181,129.979307 107.28183,130.422528 106.339723,130.601855 L128.951062,291.42883 C129.098159,291.415836 129.247086,291.4092 129.397566,291.4092 C129.834307,291.4092 130.25797,291.465097 130.661766,291.570117 L167.41792,193.173831 C165.641152,192.408294 164.397566,190.643649 164.397566,188.589055 C164.397566,187.11769 165.035337,185.795025 166.04997,184.881511 Z M335.544088,205.765457 L251.350108,221.839187 C251.381396,222.064882 251.397566,222.295399 251.397566,222.529686 C251.397566,223.997343 250.763005,225.31705 249.752825,226.230317 L321.63968,283.125366 C322.556046,282.083972 323.89991,281.426661 325.397566,281.426661 C325.618703,281.426661 325.836486,281.440992 326.050035,281.468774 L339.252114,209.420797 C337.430953,208.99469 335.993146,207.574798 335.544088,205.765457 Z M384.233032,130.199664 L343.143087,200.388974 C344.501152,201.281348 345.397566,202.816731 345.397566,204.561117 C345.397566,205.497982 345.138996,206.374561 344.689209,207.123617 L398.905423,230.317901 C399.573306,228.957967 400.842649,227.945832 402.367317,227.627025 L386.934306,130.661911 C386.757971,130.680698 386.578896,130.690333 386.397566,130.690333 C385.622168,130.690333 384.887994,130.514137 384.233032,130.199664 Z M274.493706,129.618526 C273.642206,130.289731 272.566751,130.690333 271.397566,130.690333 C271.053529,130.690333 270.717608,130.655647 270.39312,130.589587 L247.886797,217.763555 C249.551111,218.281224 250.842234,219.643665 251.256676,221.348269 L335.448275,205.274669 C335.414857,205.041625 335.397566,204.803387 335.397566,204.561117 C335.397566,203.156801 335.978536,201.88794 336.913635,200.980981 Z M267.280414,128.532004 L173.778536,186.181551 C174.173058,186.895443 174.397566,187.716076 174.397566,188.589055 C174.397566,189.218255 174.280939,189.820263 174.068087,190.374711 L241.929865,220.286279 C242.752775,218.656392 244.444384,217.538416 246.397566,217.538416 C246.741862,217.538416 247.078031,217.573155 247.402746,217.639312 L269.909206,130.465466 C268.830581,130.130187 267.908642,129.440105 267.280414,128.532004 Z M381.403764,125.949762 L276.391369,125.949762 C276.32648,127.259224 275.756076,128.435924 274.870921,129.289429 L337.289138,200.651372 C338.142568,199.974318 339.22275,199.569847 340.397566,199.569847 C341.233059,199.569847 342.02069,199.774413 342.712939,200.136107 L383.793408,129.960749 C382.423483,129.124774 381.48797,127.649056 381.403764,125.949762 Z M190.186208,62.0733401 C189.269295,63.1351473 187.912066,63.8073268 186.397566,63.8073268 C186.280413,63.8073268 186.164201,63.8033046 186.04906,63.7953912 L170.294535,183.677879 C171.626503,183.918715 172.774784,184.686266 173.515063,185.756614 L267.016597,128.106568 C266.622074,127.392677 266.397566,126.572043 266.397566,125.699064 C266.397566,124.62142 266.739683,123.623542 267.32141,122.807758 Z M183.124684,62.5895409 L109.422041,122.736613 C110.035134,123.56521 110.397566,124.589886 110.397566,125.699064 C110.397566,126.961586 109.927995,128.114625 109.153685,128.993636 L166.438989,184.564946 C167.26744,183.956961 168.290485,183.597786 169.397566,183.597786 C169.532764,183.597786 169.666709,183.603143 169.7992,183.613655 L185.552876,63.7363999 C184.633698,63.5802794 183.79999,63.1737246 183.124684,62.5895409 Z M326.980179,72.4421038 L275.163392,122.415544 C275.880736,123.234711 276.334201,124.290033 276.391419,125.449371 L381.403714,125.449371 C381.463227,124.243521 381.95142,123.150201 382.719344,122.3181 L333.717957,72.5304556 C332.834927,73.3139519 331.671921,73.7898651 330.397566,73.7898651 C329.075992,73.7898651 327.874172,73.2780301 326.980179,72.4421038 Z M191.229972,60.1023026 C191.077357,60.6751487 190.825243,61.2075078 190.493226,61.6798161 L267.63174,122.415544 C268.548274,121.368914 269.895579,120.707795 271.397566,120.707795 C272.719546,120.707795 273.921697,121.219944 274.815775,122.056325 L326.632622,72.0831218 C325.863571,71.20538 325.397566,70.0563135 325.397566,68.7985959 C325.397566,68.7750869 325.397729,68.7516158 325.398054,68.7281838 Z" id="Combined-Shape" fill="#FFFFFF"></path>
                </g>
            </g>
        </g>
    </g>
</svg>