<?xml version="1.0" encoding="UTF-8"?>
<svg width="842px" height="596px" viewBox="0 0 842 596" version="1.1" xmlns="http://www.w3.org/2000/svg" xmlns:xlink="http://www.w3.org/1999/xlink">
    <!-- Generator: Sketch 62 (91390) - https://sketch.com -->
    <title>Group 4 Copy 2</title>
    <desc>Created with Sketch.</desc>
    <g id="Page-1" stroke="none" stroke-width="1" fill="none" fill-rule="evenodd">
        <g id="Artboard" transform="translate(-224.000000, -548.000000)" fill="#FFFFFF">
            <g id="Group-4-Copy-2" transform="translate(224.000000, 548.000000)">
                <g id="Group-3-Copy-4" transform="translate(202.000000, 0.000000)">
                    <path d="M386.325326,126.54923 L403.406612,128.701 L436.396388,273.233429 L315.473016,424.866542 L121.526984,424.866542 L108.676612,408.753 L108.838198,408.770536 L110.191616,396.221694 C110.259922,396.224457 110.328581,396.225852 110.397566,396.225852 C111.644971,396.225852 112.785686,395.769855 113.66156,395.015736 L113.66156,395.015736 L140.71675,423.351347 L141.078383,423.006063 L114.023544,394.671301 C114.875068,393.776307 115.397566,392.566356 115.397566,391.234583 C115.397566,391.15428 115.395667,391.07442 115.39191,390.995046 L115.39191,390.995046 L288.451631,374.002587 C288.54923,374.661287 288.775737,375.278061 289.104736,375.826536 L289.104736,375.826536 L218.350018,422.970658 L218.627266,423.386752 L289.383043,376.241868 C290.226587,377.374011 291.539358,378.137088 293.034048,378.244293 L293.034048,378.244293 L292.016665,423.089236 L292.516536,423.100582 L293.533612,378.253 L293.661113,378.250468 C294.621145,378.2007 295.509527,377.880609 296.251332,377.364991 L296.449952,377.219576 L325.20758,410.841872 L325.587552,410.516878 L296.830894,376.894551 C297.795591,375.984616 298.397566,374.695492 298.397566,373.266014 C298.397566,372.608528 298.270217,371.980735 298.038799,371.405873 L298.038799,371.405873 L349.119776,347.900336 C349.955822,349.275861 351.438868,350.216009 353.147436,350.300039 L353.147436,350.300039 L353.147566,376.563911 L353.647566,376.563911 L353.647542,350.300046 C355.027198,350.232235 356.259814,349.606197 357.123479,348.643457 L357.123479,348.643457 L368.120442,357.518451 L368.434463,357.129361 L357.438945,348.254375 C358.04179,347.429848 358.397566,346.413852 358.397566,345.314906 C358.397566,344.841742 358.331611,344.383955 358.208378,343.950208 L358.208378,343.950208 L386.873824,334.246968 L386.713507,333.773366 L358.047973,343.47772 C357.572672,342.279807 356.646328,341.309287 355.478061,340.774915 L355.478061,340.774915 L396.780827,237.236798 C397.287954,237.409684 397.831786,237.503493 398.397566,237.503493 C398.791339,237.503493 399.174481,237.458053 399.542016,237.372139 L399.542016,237.372139 L416.616336,296.469862 L417.096688,296.331076 L400.021459,237.234353 C401.910324,236.587204 403.288319,234.84248 403.391369,232.762922 L403.391369,232.762922 L426.587316,232.762224 L426.587316,232.262224 L403.391419,232.262531 C403.261096,229.621933 401.075115,227.520955 398.397566,227.520955 C398.215894,227.520955 398.036484,227.530627 397.859826,227.549484 L397.859826,227.549484 L382.428672,130.584083 C383.052438,130.45354 383.633454,130.206946 384.148011,129.867967 L384.148011,129.867967 L412.629223,171.199503 L413.040934,170.915788 L384.551006,129.572677 C385.468855,128.827171 386.116658,127.763091 386.325326,126.54923 L386.325326,126.54923 Z M36.8748641,231.063078 C37.778654,231.958817 39.0233695,232.512224 40.3975662,232.512224 C41.0056518,232.512224 41.5883838,232.403862 42.1274415,232.205427 L42.1274415,232.205427 L108.206201,386.746964 C106.613997,387.523197 105.496118,389.118966 105.403756,390.984044 L105.403756,390.984044 L95.8012998,390.984583 L95.8012998,391.484583 L105.403714,391.484276 C105.522394,393.888958 107.345827,395.846135 109.692802,396.176655 L109.692802,396.176655 L108.377612,408.377 L0.603611627,273.233429 L3.24661163,261.653 Z M206.910521,337.483797 L288.691807,371.575026 C288.501356,372.103091 288.397566,372.672453 288.397566,373.266014 C288.397566,373.346352 288.399468,373.426248 288.403228,373.505657 L288.403228,373.505657 L115.343353,390.497009 C115.300719,390.209671 115.233554,389.930315 115.144053,389.661129 L115.144053,389.661129 L198.285939,338.173277 C199.188613,339.472699 200.693542,340.323637 202.397566,340.323637 C204.387276,340.323637 206.105537,339.163455 206.910521,337.483797 L206.910521,337.483797 Z M128.75259,298.854335 L197.817759,333.326408 C197.547548,333.940291 197.397566,334.618845 197.397566,335.332368 C197.397566,336.208644 197.623773,337.032179 198.021075,337.747957 L198.021075,337.747957 L114.95877,389.18688 C114.324133,387.780364 113.055825,386.72021 111.516932,386.368872 L111.516932,386.368872 L123.923942,301.369638 C124.079846,301.384261 124.237831,301.391738 124.397566,301.391738 C126.265491,301.391738 127.894179,300.369233 128.75259,298.854335 L128.75259,298.854335 Z M44.0974752,230.878269 L120.379784,293.428994 C119.762637,294.25917 119.397566,295.28726 119.397566,296.400469 C119.397566,298.826601 121.13158,300.848439 123.429922,301.298339 L123.429922,301.298339 L111.024067,386.282116 C110.818839,386.256507 110.609746,386.243313 110.397566,386.243313 C109.789104,386.243313 109.206027,386.351809 108.66669,386.550479 L108.66669,386.550479 L42.5889316,232.008574 C43.1617188,231.729328 43.6731206,231.34402 44.0974752,230.878269 L44.0974752,230.878269 Z M240.004054,227.324536 C240.446377,227.452415 240.913954,227.520955 241.397566,227.520955 C241.880089,227.520955 242.346647,227.452724 242.788088,227.325399 L242.788088,227.325399 L291.535181,368.632481 C290.371046,369.099188 289.423497,369.990404 288.884793,371.114206 L288.884793,371.114206 L207.103689,337.022347 C207.293909,336.494566 207.397566,335.925551 207.397566,335.332368 C207.397566,333.234434 206.100961,331.438809 204.264066,330.700487 L204.264066,330.700487 Z M322.094343,291.114454 L350.572668,341.196014 C349.25916,342.09545 348.397566,343.604736 348.397566,345.314906 C348.397566,346.082677 348.571221,346.809959 348.881461,347.459747 L348.881461,347.459747 L297.829004,370.952183 C297.258643,369.865876 296.299197,369.01516 295.135449,368.584497 L295.135449,368.584497 L319.491806,291.327509 C319.78556,291.381167 320.088284,291.4092 320.397566,291.4092 C320.993226,291.4092 321.564559,291.305221 322.094343,291.114454 L322.094343,291.114454 Z M244.356144,226.553794 L316.328559,283.516626 C315.742487,284.334249 315.397566,285.33588 315.397566,286.417931 C315.397566,288.691764 316.920711,290.61047 319.004054,291.212781 L319.004054,291.212781 L294.658757,368.43488 C294.255865,368.330365 293.833223,368.274744 293.397566,368.274744 C292.915044,368.274744 292.448485,368.342975 292.007045,368.4703 L292.007045,368.4703 L243.261025,227.162788 C243.653092,227.005501 244.020581,226.800058 244.356144,226.553794 L244.356144,226.553794 Z M334.74409,209.510142 C334.957961,209.53801 335.176082,209.552386 335.397566,209.552386 C335.484769,209.552386 335.571451,209.550157 335.657557,209.545754 L335.657557,209.545754 L352.470815,340.409208 C351.946775,340.507251 351.451546,340.686902 350.998873,340.93444 L350.998873,340.93444 L322.56011,290.919486 C324.238738,290.114428 325.397566,288.401272 325.397566,286.417931 C325.397566,284.054772 323.7524,282.075191 321.543018,281.55825 L321.543018,281.55825 Z M339.405326,207.546027 L393.70764,230.777969 C393.507115,231.318151 393.397566,231.902416 393.397566,232.512224 C393.397566,234.527719 394.594272,236.264197 396.317071,237.052215 L396.317071,237.052215 L355.013526,340.590066 C354.506621,340.41735 353.963057,340.323637 353.397566,340.323637 C353.252228,340.323637 353.108338,340.329827 352.966147,340.341958 L352.966147,340.341958 L336.155453,209.495417 C337.481725,209.2941 338.636798,208.572646 339.405326,207.546027 L339.405326,207.546027 Z M237.337037,225.442782 C237.886632,226.204839 238.646192,226.805918 239.531147,227.161599 L239.531147,227.161599 L203.791079,330.537518 C203.348755,330.409639 202.881179,330.341099 202.397566,330.341099 C200.529349,330.341099 198.900443,331.363925 198.042139,332.879213 L198.042139,332.879213 L128.977374,298.406428 C129.247584,297.792546 129.397566,297.113992 129.397566,296.400469 C129.397566,295.945992 129.336718,295.505703 129.222711,295.087275 L129.222711,295.087275 Z M168.865777,190.831451 L236.727046,220.74403 C236.514194,221.298478 236.397566,221.900486 236.397566,222.529686 C236.397566,223.437699 236.640455,224.289082 237.064914,225.02262 L237.064914,225.02262 L129.06089,294.59618 C128.545177,293.268854 127.47718,292.216462 126.13845,291.720063 L126.13845,291.720063 L162.886026,193.348189 C163.362897,193.498981 163.870716,193.580324 164.397566,193.580324 C166.351152,193.580324 168.043056,192.461886 168.865777,190.831451 L168.865777,190.831451 Z M98.0796883,130.122764 C98.7725413,130.485274 99.5610647,130.690333 100.397566,130.690333 C100.548046,130.690333 100.696973,130.683697 100.84407,130.670703 L100.84407,130.670703 L123.45584,291.497596 C122.371572,291.703884 121.411466,292.259712 120.697657,293.043155 L120.697657,293.043155 L44.4158387,230.49177 C45.0326889,229.661709 45.3975662,228.633868 45.3975662,227.520955 C45.3975662,225.776991 44.5015851,224.241929 43.1440722,223.34946 L43.1440722,223.34946 Z M103.804651,129.352178 L161.04997,184.881511 C160.035337,185.795025 159.397566,187.11769 159.397566,188.589055 C159.397566,190.643649 160.641152,192.408294 162.41792,193.173831 L162.41792,193.173831 L125.661766,291.570117 C125.25797,291.465097 124.834307,291.4092 124.397566,291.4092 C124.247086,291.4092 124.098159,291.415836 123.951062,291.42883 L123.951062,291.42883 L101.339723,130.601855 C102.28183,130.422528 103.130181,129.979307 103.804651,129.352178 L103.804651,129.352178 Z M330.544088,205.765457 C330.993146,207.574798 332.430953,208.99469 334.252114,209.420797 L334.252114,209.420797 L321.050035,281.468774 C320.836486,281.440992 320.618703,281.426661 320.397566,281.426661 C318.89991,281.426661 317.556046,282.083972 316.63968,283.125366 L316.63968,283.125366 L244.752825,226.230317 C245.763005,225.31705 246.397566,223.997343 246.397566,222.529686 C246.397566,222.295399 246.381396,222.064882 246.350108,221.839187 L246.350108,221.839187 Z M12.6166116,220.603 L35.4992506,226.514542 C35.4325797,226.839616 35.3975662,227.176203 35.3975662,227.520955 C35.3975662,228.72627 35.8255482,229.8318 36.5380858,230.694368 L36.5380858,230.694368 L3.44061163,260.802 L12.6166116,220.603 Z M379.233032,130.199664 C379.887994,130.514137 380.622168,130.690333 381.397566,130.690333 C381.578896,130.690333 381.757971,130.680698 381.934306,130.661911 L381.934306,130.661911 L397.367317,227.627025 C395.842649,227.945832 394.573306,228.957967 393.905423,230.317901 L393.905423,230.317901 L339.689209,207.123617 C340.138996,206.374561 340.397566,205.497982 340.397566,204.561117 C340.397566,202.816731 339.501152,201.281348 338.143087,200.388974 L338.143087,200.388974 Z M27.5676116,155.096 L39.2983012,222.650699 C37.5532382,223.041508 36.1530327,224.34303 35.6247159,226.029152 L35.6247159,226.029152 L12.7276116,220.115 L27.5676116,155.096 Z M63.9196116,74.442 L97.3165876,121.767698 C96.1483134,122.681354 95.3975662,124.102689 95.3975662,125.699064 L95.3975662,125.699064 L95.4007715,125.860957 L33.0658698,131.024991 L33.1071413,131.523285 L95.4410751,126.360446 C95.6354814,127.826329 96.4671721,129.09145 97.6491195,129.869282 L97.6491195,129.869282 L42.7139364,223.096467 C42.0214473,222.734448 41.233461,222.529686 40.3975662,222.529686 C40.1922419,222.529686 39.9898082,222.54204 39.7909703,222.566045 L39.7909703,222.566045 L27.9140001,154.165116 L27.7746116,154.189 L43.7606637,84.1500293 L63.9196116,74.442 Z M269.493706,129.618526 L331.913635,200.980981 C330.978536,201.88794 330.397566,203.156801 330.397566,204.561117 C330.397566,204.803387 330.414857,205.041625 330.448275,205.274669 L330.448275,205.274669 L246.256676,221.348269 C245.842234,219.643665 244.551111,218.281224 242.886797,217.763555 L242.886797,217.763555 L265.39312,130.589587 C265.717608,130.655647 266.053529,130.690333 266.397566,130.690333 C267.566751,130.690333 268.642206,130.289731 269.493706,129.618526 L269.493706,129.618526 Z M262.280414,128.532004 C262.908642,129.440105 263.830581,130.130187 264.909206,130.465466 L264.909206,130.465466 L242.402746,217.639312 C242.078031,217.573155 241.741862,217.538416 241.397566,217.538416 C239.444384,217.538416 237.752775,218.656392 236.929865,220.286279 L236.929865,220.286279 L169.068087,190.374711 C169.280939,189.820263 169.397566,189.218255 169.397566,188.589055 C169.397566,187.716076 169.173058,186.895443 168.778536,186.181551 L168.778536,186.181551 Z M376.403764,125.949762 C376.48797,127.649056 377.423483,129.124774 378.793408,129.960749 L378.793408,129.960749 L337.712939,200.136107 C337.02069,199.774413 336.233059,199.569847 335.397566,199.569847 C334.22275,199.569847 333.142568,199.974318 332.289138,200.651372 L332.289138,200.651372 L269.870921,129.289429 C270.756076,128.435924 271.32648,127.259224 271.391369,125.949762 L271.391369,125.949762 Z M185.186208,62.0733401 L262.32141,122.807758 C261.739683,123.623542 261.397566,124.62142 261.397566,125.699064 C261.397566,126.572043 261.622074,127.392677 262.016597,128.106568 L262.016597,128.106568 L168.515063,185.756614 C167.774784,184.686266 166.626503,183.918715 165.294535,183.677879 L165.294535,183.677879 L181.04906,63.7953912 C181.164201,63.8033046 181.280413,63.8073268 181.397566,63.8073268 C182.912066,63.8073268 184.269295,63.1351473 185.186208,62.0733401 L185.186208,62.0733401 Z M178.124684,62.5895409 C178.79999,63.1737246 179.633698,63.5802794 180.552876,63.7363999 L180.552876,63.7363999 L164.7992,183.613655 C164.666709,183.603143 164.532764,183.597786 164.397566,183.597786 C163.290485,183.597786 162.26744,183.956961 161.438989,184.564946 L161.438989,184.564946 L104.153685,128.993636 C104.927995,128.114625 105.397566,126.961586 105.397566,125.699064 C105.397566,124.589886 105.035134,123.56521 104.422041,122.736613 L104.422041,122.736613 Z M352.029612,64.305 L393.239336,84.1500293 L403.288612,128.182 L386.385122,126.053956 C386.389247,125.995343 386.392358,125.93645 386.394438,125.877296 L386.397566,125.699064 C386.397566,123.749243 385.277579,122.060553 383.644774,121.239103 L383.644774,121.239103 L395.142774,92.7134403 L394.679028,92.5265203 L383.18734,121.03708 C382.631648,120.824358 382.028243,120.707795 381.397566,120.707795 C380.122989,120.707795 378.959801,121.183874 378.076714,121.967613 L378.076714,121.967613 L329.075788,72.1795603 C329.89639,71.2903794 330.397566,70.1029134 330.397566,68.7985959 C330.397566,68.5850951 330.384138,68.3747251 330.358078,68.1682818 L330.358078,68.1682818 L352.029612,64.305 Z M321.980179,72.4421038 C322.874172,73.2780301 324.075992,73.7898651 325.397566,73.7898651 C326.671921,73.7898651 327.834927,73.3139519 328.717957,72.5304556 L328.717957,72.5304556 L377.719344,122.3181 C376.95142,123.150201 376.463227,124.243521 376.403714,125.449371 L376.403714,125.449371 L271.391419,125.449371 C271.334201,124.290033 270.880736,123.234711 270.163392,122.415544 L270.163392,122.415544 Z M186.229972,60.1023026 L320.398054,68.7281838 C320.397729,68.7516158 320.397566,68.7750869 320.397566,68.7985959 C320.397566,70.0563135 320.863571,71.20538 321.632622,72.0831218 L321.632622,72.0831218 L269.815775,122.056325 C268.921697,121.219944 267.719546,120.707795 266.397566,120.707795 C264.895579,120.707795 263.548274,121.368914 262.63174,122.415544 L262.63174,122.415544 L185.493226,61.6798161 C185.825243,61.2075078 186.077357,60.6751487 186.229972,60.1023026 L186.229972,60.1023026 Z M156.132612,30.034 L177.637031,55.5265056 C176.865352,56.4048849 176.397566,57.555938 176.397566,58.8160576 C176.397566,60.141828 176.915364,61.3468714 177.760093,62.2406537 L177.760093,62.2406537 L104.104671,122.349664 C103.432831,121.609124 102.541422,121.070796 101.532991,120.837048 L101.532991,120.837048 L114.349612,50.156 L156.132612,30.034 Z M113.792612,50.424 L101.040967,120.748736 C100.830322,120.721723 100.615573,120.707795 100.397566,120.707795 C99.4150467,120.707795 98.498717,120.990693 97.7258583,121.479341 L97.7258583,121.479341 L64.3756116,74.222 L113.792612,50.424 Z M260.636612,20.292 L308.144612,43.171 L322.436975,64.7759656 C321.412938,65.5282731 320.686586,66.6608937 320.466962,67.9651515 L320.429855,68.2282297 L186.335052,59.6075407 C186.376195,59.349761 186.397566,59.0854008 186.397566,58.8160576 C186.397566,58.3329269 186.328803,57.8658285 186.200515,57.4239831 L186.200515,57.4239831 L260.636612,20.292 Z M325.646612,51.599 L351.260612,63.934 L330.270637,67.6761726 C329.794904,65.6095508 328.033862,64.0328561 325.87252,63.8295522 L325.647542,63.8134561 L325.646612,51.599 Z M309.023612,43.594 L325.146612,51.359 L325.147436,63.8134637 C324.405561,63.8499501 323.706205,64.0478467 323.083873,64.3727097 L322.854176,64.5004175 L309.023612,43.594 Z M218.5,0 L260.067612,20.018 L186.03555,56.9478668 C185.62556,55.9345484 184.891991,55.0863184 183.962678,54.5307899 L183.744805,54.407845 L202.675612,7.62 L218.5,0 Z M202.005612,7.943 L183.291392,54.1952538 C182.707275,53.9564407 182.067822,53.8247885 181.397566,53.8247885 C180.0795,53.8247885 178.880554,54.3339097 177.987305,55.1658996 L177.987305,55.1658996 L156.598612,29.81 L202.005612,7.943 Z" id="Combined-Shape"></path>
                </g>
                <path d="M19.8096371,595.05 C27.3096371,595.05 33.3096371,589.05 33.3096371,581.7 L33.3105018,568.33464 C33.3297978,567.967056 33.6177452,561.040541 28.5096371,551.7 L15.6096371,527.4 C15.6096371,527.4 10.9596371,519.45 10.9596371,513.3 L10.9596371,503.25 C10.9596371,499.95 13.5096371,497.4 16.6596371,497.4 C19.8096371,497.4 22.3596371,499.95 22.3596371,503.25 L22.3596371,515.4 C25.2096371,514.2 29.4096371,512.25 30.3096371,511.8 C31.6596371,511.05 33.3096371,509.4 33.3096371,505.95 L33.3096371,501.9 C33.3096371,494.7 27.4596371,488.1 20.2596371,487.95 L13.5096371,487.95 C6.00963712,487.95 0.00963712076,494.55 0.00963712076,501.9 L0.00877241383,512.71536 C-0.0105235805,513.082944 -0.298470987,520.009459 4.80963712,529.35 L17.7096371,553.5 C17.7096371,553.5 22.3596371,561.6 22.3596371,567.75 L22.3596371,579.75 C22.3596371,583.05 19.8096371,585.6 16.6596371,585.6 C13.5096371,585.6 10.9596371,583.05 10.9596371,579.9 L10.9596371,561.6 C8.25963712,562.8 3.90963712,564.75 3.00963712,565.05 C1.65963712,565.8 0.00963712076,567.45 0.00963712076,570.9 L0.00963712076,581.7 C0.159637121,588.9 5.85963712,594.75 13.0596371,595.05 L19.8096371,595.05 Z M110.559637,595.05 C117.759637,594.75 123.459637,588.9 123.459637,581.7 L123.459637,556.35 C120.759637,557.55 116.559637,559.35 115.659637,559.8 C114.309637,560.55 112.809637,562.2 112.809637,565.65 L112.809637,579.75 C112.809637,583.05 110.259637,585.6 106.959637,585.6 C103.809637,585.6 101.259637,583.05 101.259637,579.75 L101.259637,503.1 C101.259637,499.95 103.809637,497.4 106.959637,497.4 C110.259637,497.4 112.809637,499.95 112.809637,503.1 L112.809637,526.65 L120.609637,523.05 C121.959637,522.45 123.459637,520.8 123.459637,517.35 L123.459637,501.3 C123.459637,494.1 117.759637,488.1 110.559637,487.95 L103.959637,487.95 C96.4596371,487.95 90.4596371,493.95 90.4596371,501.3 L90.4596371,581.7 C90.4596371,589.05 96.4596371,595.05 103.959637,595.05 L110.559637,595.05 Z M189.609637,594 L189.609637,545.85 L201.309637,545.85 C202.659637,545.85 203.709637,546.9 203.859637,548.25 L203.859637,594 L214.659637,594 L214.659637,493.2 C214.659637,491.4 213.609637,489 210.309637,489 L203.859637,489 L203.859637,535.2 L193.359637,535.2 C190.809637,535.2 189.609637,534.45 189.609637,531.45 L189.609637,489 L183.159637,489 C179.859637,489 178.809637,491.4 178.809637,493.2 L178.809637,594 L189.609637,594 Z M298.509637,594 C301.959637,594 303.609637,592.5 304.359637,591.15 C304.809637,590.25 306.609637,586.05 307.809637,583.35 L285.309637,583.35 L285.309637,546.9 C285.309637,545.55 286.509637,544.35 287.859637,544.35 L292.359637,544.35 C295.809637,544.35 297.309637,542.85 298.059637,541.5 C298.509637,540.6 300.309637,536.25 301.509637,533.55 L285.309637,533.55 L285.309637,502.35 C285.309637,500.85 286.359637,499.8 287.859637,499.8 L296.559637,499.8 C300.009637,499.8 301.659637,498.15 302.259637,496.8 L305.859637,489 L277.809637,489 C276.009637,489 274.659637,490.35 274.509637,492 L274.509637,594 L298.509637,594 Z M365.259637,594 L365.259637,539.85 L371.559637,567.3 C372.159637,569.55 373.359637,575.85 379.659637,575.85 L382.959637,575.85 L391.059637,539.85 L391.059637,594 L401.709637,594 L401.709637,489 L395.109637,489 C391.209637,489 390.459637,492.3 390.309637,492.75 L378.459637,553.2 L366.009637,492.9 C366.009637,492.9 365.409637,489 361.209637,489 L354.609637,489 L354.609637,594 L365.259637,594 Z M457.209637,594 L466.659637,521.7 L476.109637,594 L487.959637,594 L472.809637,494.7 C472.359637,491.85 471.609637,489 467.109637,489 L467.109637,489 L461.259637,489 L445.359637,594 L457.209637,594 Z M546.609637,594 L546.609637,545.85 L558.309637,545.85 C559.659637,545.85 560.709637,546.9 560.859637,548.25 L560.859637,594 L571.659637,594 L571.659637,493.2 C571.659637,491.4 570.609637,489 567.309637,489 L560.859637,489 L560.859637,535.2 L550.359637,535.2 C547.809637,535.2 546.609637,534.45 546.609637,531.45 L546.609637,489 L540.159637,489 C536.859637,489 535.809637,491.4 535.809637,493.2 L535.809637,594 L546.609637,594 Z M655.509637,594 C658.959637,594 660.609637,592.5 661.359637,591.15 C661.809637,590.25 663.609637,586.05 664.809637,583.35 L642.309637,583.35 L642.309637,546.9 C642.309637,545.55 643.509637,544.35 644.859637,544.35 L649.359637,544.35 C652.809637,544.35 654.309637,542.85 655.059637,541.5 C655.509637,540.6 657.309637,536.25 658.509637,533.55 L642.309637,533.55 L642.309637,502.35 C642.309637,500.85 643.359637,499.8 644.859637,499.8 L653.559637,499.8 C657.009637,499.8 658.659637,498.15 659.259637,496.8 L662.859637,489 L634.809637,489 C633.009637,489 631.659637,490.35 631.509637,492 L631.509637,594 L655.509637,594 Z M727.809637,594 L727.809637,548.85 L733.509637,548.85 C736.359637,548.85 739.059637,550.5 739.059637,555.6 L739.059637,594 L749.859637,594 L749.860538,553.771774 C749.87515,553.259649 750.012269,545.926316 745.959637,543.9 C750.233321,542.868421 749.873949,534.887258 749.860024,534.607534 L749.859637,502.2 C749.859637,494.85 743.859637,489 736.659637,489 L717.009637,489 L717.009637,594 L727.809637,594 Z M733.509637,538.65 L727.809637,538.65 L727.809637,499.05 L733.509637,499.05 C736.359637,499.05 739.059637,500.55 739.059637,504.45 L739.059637,532.65 C739.059637,537.45 736.359637,538.65 733.509637,538.65 Z M828.009637,595.05 C835.209637,594.75 840.909637,589.05 841.059637,581.85 L841.059637,501.3 C841.059637,494.1 835.209637,488.25 828.009637,487.95 L819.759637,487.95 C812.259637,487.95 806.259637,493.95 806.259637,501.3 L806.259637,581.85 C806.409637,589.05 812.409637,595.05 819.759637,595.05 L828.009637,595.05 Z M824.409637,585.6 L822.759637,585.6 C819.609637,585.45 817.059637,582.9 817.059637,579.75 L817.059637,503.25 C817.059637,500.1 819.609637,497.55 822.759637,497.4 L824.409637,497.4 C827.559637,497.4 830.109637,499.95 830.109637,503.25 L830.109637,579.75 C830.109637,583.05 827.559637,585.6 824.409637,585.6 Z" id="SchemaHero" fill-rule="nonzero"></path>
            </g>
        </g>
    </g>
</svg>