<?xml version="1.0" encoding="UTF-8"?>
<svg width="1108px" height="201px" viewBox="0 0 1108 201" version="1.1" xmlns="http://www.w3.org/2000/svg" xmlns:xlink="http://www.w3.org/1999/xlink">
    <!-- Generator: Sketch 62 (91390) - https://sketch.com -->
    <title>Group 5 Copy</title>
    <desc>Created with Sketch.</desc>
    <g id="Page-1" stroke="none" stroke-width="1" fill="none" fill-rule="evenodd">
        <g id="Artboard" transform="translate(-92.000000, -204.000000)" fill="#FFFFFF">
            <g id="Group-5-Copy" transform="translate(92.000000, 204.000000)">
                <g id="Group-3-Copy-4">
                    <path d="M165.279965,164.498274 C165.660597,165.052303 166.27177,165.435588 166.975098,165.50974 L166.975098,165.50974 L166.975267,177.930241 L167.314105,177.93 L149.274734,200.552216 L57.7252655,200.552216 L51.8161053,193.143 L51.9983942,193.162707 L52.6380069,187.219217 L52.6026256,187.220965 C53.1435788,187.220965 53.6419952,187.038843 54.0399054,186.73257 L54.0399054,186.73257 L66.8084508,200.129298 L67.1703852,199.784329 L54.4016648,186.387651 C54.7467789,185.980971 54.9564629,185.455752 54.9610396,184.881671 L54.9610396,184.881671 L136.613432,176.850276 C136.658285,177.067997 136.733146,177.274759 136.8335,177.466048 L136.8335,177.466048 L103.45019,199.748879 L103.727774,200.164748 L137.111284,177.881564 C137.482902,178.327146 138.015776,178.633542 138.620256,178.7111 L138.620256,178.7111 L138.13997,199.911555 L138.639842,199.922881 L139.121025,178.722235 C139.540172,178.687459 139.928207,178.543077 140.256395,178.317826 L140.256395,178.317826 L153.827594,194.212923 L154.207846,193.888257 L140.636051,177.993408 C141.036352,177.570743 141.281871,176.999998 141.281871,176.371908 C141.281871,176.107557 141.238379,175.853363 141.158161,175.616093 L141.158161,175.616093 Z M18.0188897,109.268577 C18.4352481,109.638081 18.983298,109.862474 19.5837576,109.862474 C19.8243202,109.862474 20.0564708,109.826458 20.2751112,109.759523 L20.2751112,109.759523 L51.4518986,182.803275 C50.8000798,183.168307 50.3393183,183.833861 50.2572459,184.612305 L50.2572459,184.612305 L45.7175943,184.612474 L45.7175943,185.112474 L50.2572925,185.113085 C50.3661645,186.143864 51.1390348,186.976621 52.140197,187.175648 L52.140197,187.175648 L51.5351053,192.79 L0.645105265,128.975959 L1.89010526,123.521 L2.11178555,123.764036 Z M98.0666964,159.582532 L136.662193,175.699279 C136.600618,175.906591 136.566775,176.125835 136.564966,176.352711 L136.564966,176.352711 L54.9125738,184.384106 C54.903222,184.338712 54.8925658,184.293794 54.880646,184.249393 L54.880646,184.249393 L94.1373738,159.895787 C94.5689503,160.449651 95.2423014,160.80587 95.998852,160.80587 C96.8899056,160.80587 97.6655468,160.311731 98.0666964,159.582532 L98.0666964,159.582532 Z M61.1926909,141.323352 L93.789168,157.621068 C93.692963,157.87822 93.6403614,158.156657 93.6403614,158.44738 C93.6403614,158.813921 93.723977,159.160933 93.8731743,159.470381 L93.8731743,159.470381 L54.6961895,183.775384 C54.401426,183.208873 53.8834667,182.777054 53.2588688,182.596485 L53.2588688,182.596485 L59.1153543,142.407919 C59.1455606,142.409065 59.1759123,142.409644 59.2063992,142.409644 C60.0404266,142.409644 60.7733414,141.976729 61.1926909,141.323352 L61.1926909,141.323352 Z M21.2368493,109.186175 L57.2355969,138.755137 C56.9905289,139.12705 56.8479086,139.572446 56.8479086,140.051153 C56.8479086,141.151258 57.6011076,142.075444 58.619951,142.336156 L58.619951,142.336156 L52.7661283,182.509562 C52.712107,182.505863 52.6575858,182.503983 52.6026256,182.503983 C52.362063,182.503983 52.1299124,182.54 51.911272,182.606934 L51.911272,182.606934 L20.7347823,109.563016 C20.9187731,109.459942 21.0875358,109.332922 21.2368493,109.186175 L21.2368493,109.186175 Z M181.617317,61.4306919 L195.055858,80.9654483 L195.350105,80.762 L206.354895,128.975959 L167.475105,177.728 L167.475878,165.509694 C167.957753,165.458798 168.396352,165.262789 168.74716,164.966182 L168.892001,164.833035 L174.086905,169.033303 L174.401258,168.644481 L169.206427,164.444521 C169.445151,164.075833 169.583758,163.636284 169.583758,163.164361 C169.583758,162.986805 169.564137,162.813831 169.526946,162.64749 L169.526946,162.64749 L183.058428,158.059367 L182.89786,157.58585 L169.366321,162.173886 C169.148766,161.704397 168.781332,161.318514 168.325439,161.077656 L168.325439,161.077656 L187.815542,112.134177 C188.017912,112.190728 188.231266,112.220965 188.451682,112.220965 C188.591742,112.220965 188.728951,112.208756 188.862302,112.185345 L188.862302,112.185345 L196.918524,140.120434 L197.398941,139.981872 L189.341999,112.047136 C190.129394,111.72592 190.704248,110.991388 190.797015,110.113085 L190.797015,110.113085 L201.748734,110.112474 L201.748734,109.612474 L190.797062,109.612305 C190.672131,108.427356 189.669739,107.503983 188.451682,107.503983 L188.451682,107.503983 L188.330007,107.508217 L181.047883,61.6682617 C181.249682,61.6138962 181.440776,61.5334245 181.617317,61.4306919 L181.617317,61.4306919 Z M114.922706,107.44474 L137.922946,174.235497 C137.470199,174.447875 137.096003,174.799934 136.855857,175.236173 L136.855857,175.236173 L98.2600388,159.120009 C98.3233498,158.906855 98.3573426,158.681087 98.3573426,158.44738 C98.3573426,157.503259 97.8025935,156.688707 97.0012749,156.311903 L97.0012749,156.311903 L113.866097,107.44443 C114.036148,107.483398 114.213209,107.503983 114.395078,107.503983 C114.576465,107.503983 114.75307,107.483507 114.922706,107.44474 L114.922706,107.44474 Z M152.331858,137.595359 L165.786025,161.295777 C165.226929,161.727048 164.866777,162.403645 164.866777,163.164361 C164.866777,163.479824 164.928712,163.780822 165.041086,164.055857 L165.041086,164.055857 L140.948385,175.162143 C140.696657,174.741686 140.317692,174.406156 139.864692,174.208755 L139.864692,174.208755 L151.363079,137.674248 C151.460087,137.686401 151.558927,137.692663 151.659229,137.692663 C151.892937,137.692663 152.118705,137.65867 152.331858,137.595359 L152.331858,137.595359 Z M115.676232,107.126009 L149.665932,134.072955 C149.434653,134.437716 149.300739,134.870305 149.300739,135.334172 C149.300739,136.362328 149.958638,137.236823 150.876423,137.559644 L150.876423,137.559644 L139.388786,174.059327 C139.238327,174.029214 139.082699,174.013417 138.92338,174.013417 C138.741993,174.013417 138.565389,174.033894 138.395752,174.072661 L138.395752,174.072661 L115.395102,107.282096 C115.492641,107.236365 115.586536,107.184151 115.676232,107.126009 L115.676232,107.126009 Z M158.558136,99.0069078 C158.613119,99.0109771 158.668626,99.0131613 158.724593,99.0133962 L158.724593,99.0133962 L166.659096,160.874266 C166.503376,160.912635 166.353744,160.966472 166.211923,161.034054 L166.211923,161.034054 L152.797363,137.400373 C153.524927,136.998751 154.01772,136.224011 154.01772,135.334172 C154.01772,134.263844 153.304743,133.360041 152.327816,133.071789 L152.327816,133.071789 Z M160.540167,98.1724981 L186.197062,109.168122 C186.129538,109.387638 186.093192,109.620811 186.093192,109.862474 C186.093192,110.767573 186.603031,111.553592 187.351185,111.949007 L187.351185,111.949007 L167.86039,160.892373 C167.658322,160.836005 167.445314,160.80587 167.225267,160.80587 L167.225267,160.80587 L167.154007,160.808217 L159.222209,98.9629731 C159.74686,98.8527094 160.207323,98.5680736 160.540167,98.1724981 L160.540167,98.1724981 Z M112.559505,106.626549 C112.782884,106.90305 113.067466,107.128056 113.392656,107.280969 L113.392656,107.280969 L96.5278331,156.148443 C96.3577827,156.109475 96.1807213,156.088889 95.998852,156.088889 C95.1648245,156.088889 94.4319097,156.521804 94.0125603,157.17518 L94.0125603,157.17518 L61.4164597,140.876458 C61.5124254,140.619586 61.5648897,140.341496 61.5648897,140.051153 C61.5648897,139.88512 61.5477331,139.723094 61.5150959,139.566751 L61.5150959,139.566751 Z M80.1188451,90.2843103 L112.148278,104.426217 C112.075744,104.652977 112.036588,104.894662 112.036588,105.145493 C112.036588,105.527431 112.127376,105.888164 112.288548,106.20729 L112.288548,106.20729 L61.3541459,139.075252 C61.113548,138.546595 60.683501,138.122374 60.1507375,137.889322 L60.1507375,137.889322 L77.4891437,91.3930836 C77.6762604,91.4408535 77.8723265,91.4662476 78.0743237,91.4662476 C78.9484089,91.4662476 79.7114355,90.990749 80.1188451,90.2843103 L80.1188451,90.2843103 Z M46.9111577,61.5391658 C47.2081879,61.6741104 47.5381394,61.7492664 47.8856444,61.7492664 L47.8856444,61.7492664 L47.9630069,61.7462175 L58.6318678,137.763135 C58.2182462,137.866666 57.8479178,138.079416 57.5533075,138.368962 L57.5533075,138.368962 L21.5558613,108.798023 C21.8001327,108.426509 21.9422482,107.981843 21.9422482,107.503983 C21.9422482,106.727253 21.5667721,106.03822 20.9874257,105.608489 L20.9874257,105.608489 Z M49.3933174,61.2045247 L76.3998427,87.4468561 C75.9770238,87.8731105 75.7158331,88.4599316 75.7158331,89.107757 C75.7158331,90.0315739 76.2469785,90.8313351 77.020548,91.2183194 L77.020548,91.2183194 L59.6727964,137.738771 C59.5220302,137.708529 59.3660676,137.692663 59.2063992,137.692663 L59.2063992,137.692663 L59.1280069,137.694217 L48.4601758,61.6787944 C48.8083451,61.5916464 49.1258387,61.4271101 49.3933174,61.2045247 L49.3933174,61.2045247 Z M156.481005,97.3522763 C156.713212,98.1035748 157.310766,98.694437 158.066114,98.9173104 L158.066114,98.9173104 L151.834789,132.982117 C151.776827,132.977852 151.718281,132.975682 151.659229,132.975682 C151.000549,132.975682 150.404935,133.245698 149.977038,133.68108 L149.977038,133.68108 L116.074383,106.801517 C116.494364,106.375669 116.753569,105.790851 116.753569,105.145493 C116.753569,105.079541 116.750862,105.01422 116.745553,104.949638 L116.745553,104.949638 Z M6.27310526,104.317 L17.2503659,107.158674 C17.2338304,107.271383 17.2252671,107.386683 17.2252671,107.503983 C17.2252671,108.025808 17.3947359,108.50805 17.6816389,108.898676 L17.6816389,108.898676 L1.95710526,123.227 L6.27310526,104.317 Z M179.533439,61.5717206 C179.810601,61.6861414 180.114336,61.7492664 180.432814,61.7492664 L180.432814,61.7492664 L180.553007,61.7452175 L187.836535,107.585009 C187.218592,107.751508 186.701048,108.162803 186.394315,108.708482 L186.394315,108.708482 L160.824053,97.750073 C160.995938,97.4228197 161.093192,97.0502306 161.093192,96.6549268 C161.093192,95.8781963 160.717715,95.189163 160.138369,94.7594327 L160.138369,94.7594327 Z M13.3801053,73.179 L18.9364424,105.235433 C18.2162541,105.440542 17.6366487,105.979345 17.3754398,106.674029 L17.3754398,106.674029 L6.39688247,103.833495 L6.28710526,104.255 L13.3801053,73.179 Z M30.5041053,35.152 L46.3308815,57.617266 C45.8511121,58.0381974 45.5435935,58.6507002 45.5277934,59.3353064 L45.5277934,59.3353064 L16.1144726,61.7759837 L16.1558157,62.2742715 L45.5687964,59.8343204 C45.6814246,60.4261987 46.0152408,60.9396902 46.4809812,61.2855314 L46.4809812,61.2855314 L20.5572431,105.355139 C20.2604727,105.22048 19.9308723,105.145493 19.5837576,105.145493 L19.5837576,105.145493 L19.4290069,105.150217 L13.825424,72.819159 L13.4471053,72.884 L21.0167786,39.7218259 L30.5041053,35.152 Z M127.54093,61.3225464 L156.999555,95.05749 C156.612559,95.4776325 156.37621,96.0386786 156.37621,96.6549268 C156.37621,96.7239707 156.379177,96.7923216 156.38499,96.859859 L156.38499,96.859859 L116.651839,104.45814 C116.43811,103.755511 115.905237,103.191875 115.222034,102.93605 L115.222034,102.93605 L125.843231,61.7243155 C125.955619,61.7407542 126.070581,61.7492664 126.187531,61.7492664 C126.691116,61.7492664 127.157838,61.5914375 127.54093,61.3225464 L127.54093,61.3225464 Z M124.323626,60.8360633 C124.589176,61.1780324 124.946761,61.4449712 125.359205,61.5997054 L125.359205,61.5997054 L114.738369,102.811806 C114.626302,102.795464 114.511678,102.787002 114.395078,102.787002 C113.521036,102.787002 112.758041,103.262454 112.350617,103.968836 L112.350617,103.968836 L80.3214422,89.8260383 C80.3937723,89.5995658 80.4328142,89.3582208 80.4328142,89.107757 C80.4328142,88.742291 80.3496885,88.39624 80.2013126,88.0874798 L80.2013126,88.0874798 Z M178.087329,59.6399428 C178.160953,60.3411162 178.541807,60.9507872 179.092821,61.3318868 L179.092821,61.3318868 L159.707185,94.505628 C159.410675,94.3712549 159.081425,94.2964363 158.734701,94.2964363 C158.228151,94.2964363 157.758898,94.4561297 157.374543,94.7279185 L157.374543,94.7279185 L127.918023,60.9932516 C128.254546,60.6300173 128.478119,60.1606386 128.532911,59.6409453 L128.532911,59.6409453 Z M87.7906958,29.4243687 L124.191377,58.1340752 C123.961853,58.4978882 123.829041,58.928822 123.829041,59.3907759 C123.829041,59.755461 123.911812,60.1008139 124.059592,60.4090733 L124.059592,60.4090733 L79.9374363,87.6614496 C79.6143377,87.2458388 79.1552337,86.941204 78.6269454,86.8143664 L78.6269454,86.8143664 L86.0610802,30.1452787 L86.0610802,30.1452787 L86.0931916,30.1454929 C86.759766,30.1454929 87.3617538,29.868965 87.7906958,29.4243687 L87.7906958,29.4243687 Z M84.6539333,29.6555737 C84.9187674,29.8598628 85.2282406,30.0091063 85.5652187,30.0861702 L85.5652187,30.0861702 L78.1307988,86.7499293 L78.1307988,86.7499293 L78.0743237,86.7492664 C77.6002806,86.7492664 77.1589024,86.8891212 76.7891989,87.1298208 L76.7891989,87.1298208 L49.7423977,60.8452267 C50.056717,60.4445281 50.244135,59.9395389 50.244135,59.3907759 C50.244135,58.913676 50.1024708,58.4696636 49.8589117,58.098508 L49.8589117,58.098508 Z M182.731142,59.9224096 L190.827105,60.943 L195.265105,80.388 L182.021147,61.1342644 C182.325618,60.8567287 182.557121,60.500514 182.683506,60.0977695 L182.731142,59.9224096 Z M186.967105,44.03 L190.708105,60.424 L182.791049,59.4258924 C182.791134,59.4200499 182.791198,59.4142022 182.791241,59.4083494 L182.791305,59.3907759 C182.791305,58.5167333 182.315853,57.7537385 181.609471,57.3463141 L181.609471,57.3463141 L186.967105,44.03 Z M152.504486,34.3130905 C152.914035,34.6560246 153.441768,34.862474 154.01772,34.862474 C154.571586,34.862474 155.08086,34.6715544 155.483321,34.3519359 L155.483321,34.3519359 L178.611656,57.8920507 C178.325873,58.2389171 178.137263,58.6688399 178.087481,59.1401651 L178.087481,59.1401651 L128.532864,59.1401651 C128.485418,58.6909507 128.311863,58.2793452 128.048263,57.9414113 L128.048263,57.9414113 Z M88.3341966,28.5241493 L151.662007,32.6022175 L151.659229,32.5039834 C151.659229,33.0504271 151.845066,33.5534661 152.156988,33.953348 L152.156988,33.953348 L127.700159,57.5811618 C127.290695,57.2385312 126.763199,57.0322853 126.187531,57.0322853 C125.526384,57.0322853 124.928776,57.3043284 124.500539,57.7425831 L124.500539,57.7425831 L88.0984511,29.0291531 C88.1959095,28.8721551 88.2754444,28.7028675 88.3341966,28.5241493 L88.3341966,28.5241493 Z M74.0141053,14.199 L84.233316,26.3365406 C83.9208783,26.7365993 83.734701,27.2400588 83.734701,27.7870023 C83.734701,28.3659171 83.9432802,28.8961157 84.2893885,29.3065478 L84.2893885,29.3065478 L49.5436211,57.7133992 C49.2696401,57.4425673 48.9296429,57.238376 48.549933,57.1271285 L48.549933,57.1271285 L54.6301053,23.534 L74.0141053,14.199 Z M166.787105,30.477 L185.983221,39.7218259 L186.915105,43.803 L186.575099,43.6668211 L181.15209,57.1439753 C180.92533,57.0714417 180.683645,57.0322853 180.432814,57.0322853 C179.879321,57.0322853 179.370359,57.2229486 178.968024,57.5421798 L178.968024,57.5421798 L155.839698,34.0017121 C156.17492,33.5943888 156.37621,33.072693 156.37621,32.5039834 C156.37621,32.4480035 156.37426,32.392479 156.370424,32.3374743 L156.370424,32.3374743 L166.787105,30.477 Z M54.0731053,23.802 L48.0572467,57.0384328 C48.0005769,57.0343579 47.9433527,57.0322853 47.8856444,57.0322853 C47.4698214,57.0322853 47.0791325,57.1398968 46.7399072,57.32879 L46.7399072,57.32879 L30.9611053,34.932 L54.0731053,23.802 Z M123.586105,9.673 L145.661105,20.304 L152.516497,30.6848864 C152.137882,30.9976967 151.858572,31.4264308 151.732924,31.9167304 L151.693115,32.1033725 L88.4393009,28.0301512 C88.4474875,27.9502164 88.4516822,27.8690992 88.4516822,27.7870023 C88.4516822,27.6056153 88.4312058,27.4290109 88.3924384,27.2593744 L88.3924384,27.2593744 L123.586105,9.673 Z M154.267105,24.448 L166.018105,30.107 L156.283064,31.8455156 C156.036916,30.9972206 155.327201,30.3460422 154.446271,30.1843328 L154.267889,30.1586038 L154.267105,24.448 Z M146.539105,20.726 L153.767105,24.207 L153.767109,30.1586503 C153.52876,30.1838251 153.300998,30.2445027 153.089212,30.3352963 L152.933451,30.4089541 L146.539105,20.726 Z M103.5,0 L123.017105,9.399 L88.2279121,26.7829732 C88.0580625,26.4224759 87.7995848,26.1119651 87.4805743,25.879536 L87.3161548,25.7699583 L96.3301053,3.452 L103.5,0 Z M95.6601053,3.775 L86.8629055,25.556969 C86.6216731,25.4737207 86.3627119,25.4285117 86.0931916,25.4285117 C85.5191115,25.4285117 84.9929373,25.6336217 84.5839541,25.9745566 L84.5839541,25.9745566 L74.4791053,13.975 L95.6601053,3.775 Z" id="Combined-Shape"></path>
                </g>
                <path d="M286.808232,164 C294.307701,164 300.307275,158.005602 300.307275,150.662465 L300.30814,137.309584 C300.327435,136.942344 300.615361,130.022295 295.507616,120.690476 L282.60853,96.4131653 C282.60853,96.4131653 277.95886,88.4705882 277.95886,82.3263305 L277.95886,72.2857143 C277.95886,68.9887955 280.508679,66.4411765 283.658456,66.4411765 C286.808232,66.4411765 289.358052,68.9887955 289.358052,72.2857143 L289.358052,84.4243697 C292.20785,83.2254902 296.407552,81.2773109 297.307488,80.8277311 C298.657392,80.0784314 300.307275,78.429972 300.307275,74.9831933 L300.307275,70.9369748 C300.307275,63.7436975 294.45769,57.1498599 287.258201,57 L280.508679,57 C273.009211,57 267.009636,63.5938375 267.009636,70.9369748 L267.008772,81.7422368 C266.989477,82.109477 266.70155,89.0295253 271.809296,98.3613445 L284.708381,122.488796 C284.708381,122.488796 289.358052,130.581232 289.358052,136.72549 L289.358052,148.714286 C289.358052,152.011204 286.808232,154.558824 283.658456,154.558824 C280.508679,154.558824 277.95886,152.011204 277.95886,148.864146 L277.95886,130.581232 C275.259051,131.780112 270.90936,133.728291 270.009424,134.028011 C268.659519,134.777311 267.009636,136.42577 267.009636,139.872549 L267.009636,150.662465 C267.159626,157.855742 272.859222,163.70028 280.058711,164 L286.808232,164 Z M377.551798,164 C384.751287,163.70028 390.450883,157.855742 390.450883,150.662465 L390.450883,125.336134 C387.751074,126.535014 383.551372,128.333333 382.651436,128.782913 C381.301532,129.532213 379.801638,131.180672 379.801638,134.627451 L379.801638,148.714286 C379.801638,152.011204 377.251819,154.558824 373.952053,154.558824 C370.802276,154.558824 368.252457,152.011204 368.252457,148.714286 L368.252457,72.1358543 C368.252457,68.9887955 370.802276,66.4411765 373.952053,66.4411765 C377.251819,66.4411765 379.801638,68.9887955 379.801638,72.1358543 L379.801638,95.6638655 L387.601085,92.0672269 C388.950989,91.4677871 390.450883,89.8193277 390.450883,86.372549 L390.450883,70.337535 C390.450883,63.1442577 384.751287,57.1498599 377.551798,57 L370.952266,57 C363.452797,57 357.453223,62.9943978 357.453223,70.337535 L357.453223,150.662465 C357.453223,158.005602 363.452797,164 370.952266,164 L377.551798,164 Z M456.596192,162.95098 L456.596192,114.845938 L468.295363,114.845938 C469.645267,114.845938 470.695193,115.894958 470.845182,117.243697 L470.845182,162.95098 L481.644416,162.95098 L481.644416,62.245098 C481.644416,60.4467787 480.594491,58.0490196 477.294725,58.0490196 L470.845182,58.0490196 L470.845182,104.205882 L460.345927,104.205882 C457.796107,104.205882 456.596192,103.456583 456.596192,100.459384 L456.596192,58.0490196 L450.14665,58.0490196 C446.846884,58.0490196 445.796958,60.4467787 445.796958,62.245098 L445.796958,162.95098 L456.596192,162.95098 Z M565.488471,162.95098 C568.938226,162.95098 570.588109,161.452381 571.338056,160.103641 C571.788024,159.204482 573.587896,155.008403 574.787811,152.310924 L552.289407,152.310924 L552.289407,115.894958 C552.289407,114.546218 553.489322,113.347339 554.839226,113.347339 L559.338907,113.347339 C562.788662,113.347339 564.288556,111.848739 565.038503,110.5 C565.488471,109.60084 567.288343,105.254902 568.488258,102.557423 L552.289407,102.557423 L552.289407,71.3865546 C552.289407,69.8879552 553.339332,68.8389356 554.839226,68.8389356 L563.538609,68.8389356 C566.988364,68.8389356 568.638247,67.1904762 569.238205,65.8417367 L572.837949,58.0490196 L544.789938,58.0490196 C542.990066,58.0490196 541.640162,59.3977591 541.490172,61.0462185 L541.490172,162.95098 L565.488471,162.95098 Z M632.233738,162.95098 L632.233738,108.851541 L638.533291,136.27591 C639.133248,138.52381 640.333163,144.817927 646.632717,144.817927 L649.932483,144.817927 L658.031908,108.851541 L658.031908,162.95098 L668.681153,162.95098 L668.681153,58.0490196 L662.081621,58.0490196 C658.181898,58.0490196 657.431951,61.3459384 657.281961,61.7955182 L645.432802,122.189076 L632.983684,61.9453782 C632.983684,61.9453782 632.383727,58.0490196 628.184025,58.0490196 L621.584493,58.0490196 L621.584493,162.95098 L632.233738,162.95098 Z M724.177218,162.95098 L733.626548,90.7184874 L743.075878,162.95098 L754.925037,162.95098 L739.776112,63.7436975 C739.326143,60.8963585 738.576197,58.0490196 734.076516,58.0490196 L734.076516,58.0490196 L728.226931,58.0490196 L712.328058,162.95098 L724.177218,162.95098 Z M813.570879,162.95098 L813.570879,114.845938 L825.270049,114.845938 C826.619953,114.845938 827.669879,115.894958 827.819868,117.243697 L827.819868,162.95098 L838.619102,162.95098 L838.619102,62.245098 C838.619102,60.4467787 837.569177,58.0490196 834.269411,58.0490196 L827.819868,58.0490196 L827.819868,104.205882 L817.320613,104.205882 C814.770794,104.205882 813.570879,103.456583 813.570879,100.459384 L813.570879,58.0490196 L807.121336,58.0490196 C803.82157,58.0490196 802.771644,60.4467787 802.771644,62.245098 L802.771644,162.95098 L813.570879,162.95098 Z M922.463157,162.95098 C925.912912,162.95098 927.562795,161.452381 928.312742,160.103641 C928.76271,159.204482 930.562582,155.008403 931.762497,152.310924 L909.264093,152.310924 L909.264093,115.894958 C909.264093,114.546218 910.464008,113.347339 911.813912,113.347339 L916.313593,113.347339 C919.763348,113.347339 921.263242,111.848739 922.013189,110.5 C922.463157,109.60084 924.263029,105.254902 925.462944,102.557423 L909.264093,102.557423 L909.264093,71.3865546 C909.264093,69.8879552 910.314018,68.8389356 911.813912,68.8389356 L920.513295,68.8389356 C923.96305,68.8389356 925.612933,67.1904762 926.212891,65.8417367 L929.812636,58.0490196 L901.764625,58.0490196 C899.964752,58.0490196 898.614848,59.3977591 898.464859,61.0462185 L898.464859,162.95098 L922.463157,162.95098 Z M994.75803,162.95098 L994.75803,117.843137 L1000.45763,117.843137 C1003.30742,117.843137 1006.00723,119.491597 1006.00723,124.586835 L1006.00723,162.95098 L1016.80647,162.95098 L1016.80737,122.760316 C1016.82198,122.248669 1016.95909,114.922183 1012.90674,112.897759 C1017.18012,111.867143 1016.82078,103.893432 1016.80685,103.61397 L1016.80647,71.2366947 C1016.80647,63.8935574 1010.80689,58.0490196 1003.6074,58.0490196 L983.958796,58.0490196 L983.958796,162.95098 L994.75803,162.95098 Z M1000.45763,107.652661 L994.75803,107.652661 L994.75803,68.0896359 L1000.45763,68.0896359 C1003.30742,68.0896359 1006.00723,69.5882353 1006.00723,73.4845938 L1006.00723,101.658263 C1006.00723,106.453782 1003.30742,107.652661 1000.45763,107.652661 Z M1094.95093,164 C1102.15041,163.70028 1107.85001,158.005602 1108,150.812325 L1108,70.337535 C1108,63.1442577 1102.15041,57.2997199 1094.95093,57 L1086.70151,57 C1079.20204,57 1073.20247,62.9943978 1073.20247,70.337535 L1073.20247,150.812325 C1073.35246,158.005602 1079.35203,164 1086.70151,164 L1094.95093,164 Z M1091.35118,154.558824 L1089.7013,154.558824 C1086.55152,154.408964 1084.0017,151.861345 1084.0017,148.714286 L1084.0017,72.2857143 C1084.0017,69.1386555 1086.55152,66.5910364 1089.7013,66.4411765 L1091.35118,66.4411765 C1094.50096,66.4411765 1097.05078,68.9887955 1097.05078,72.2857143 L1097.05078,148.714286 C1097.05078,152.011204 1094.50096,154.558824 1091.35118,154.558824 Z" id="SchemaHero" fill-rule="nonzero"></path>
            </g>
        </g>
    </g>
</svg>