<?xml version="1.0" encoding="UTF-8"?>
<svg width="841px" height="107px" viewBox="0 0 841 107" version="1.1" xmlns="http://www.w3.org/2000/svg" xmlns:xlink="http://www.w3.org/1999/xlink">
    <!-- Generator: Sketch 62 (91390) - https://sketch.com -->
    <title>SchemaHero</title>
    <desc>Created with Sketch.</desc>
    <g id="Page-1" stroke="none" stroke-width="1" fill="none" fill-rule="evenodd">
        <g id="Artboard" transform="translate(-459.000000, -1531.000000)" fill="#FFFFFF" fill-rule="nonzero">
            <path d="M478.808232,1638 C486.307701,1638 492.307275,1632.0056 492.307275,1624.66246 L492.30814,1611.30958 C492.327435,1610.94234 492.615361,1604.0223 487.507616,1594.69048 L474.60853,1570.41317 C474.60853,1570.41317 469.95886,1562.47059 469.95886,1556.32633 L469.95886,1546.28571 C469.95886,1542.9888 472.508679,1540.44118 475.658456,1540.44118 C478.808232,1540.44118 481.358052,1542.9888 481.358052,1546.28571 L481.358052,1558.42437 C484.20785,1557.22549 488.407552,1555.27731 489.307488,1554.82773 C490.657392,1554.07843 492.307275,1552.42997 492.307275,1548.98319 L492.307275,1544.93697 C492.307275,1537.7437 486.45769,1531.14986 479.258201,1531 L472.508679,1531 C465.009211,1531 459.009636,1537.59384 459.009636,1544.93697 L459.008772,1555.74224 C458.989477,1556.10948 458.70155,1563.02953 463.809296,1572.36134 L476.708381,1596.4888 C476.708381,1596.4888 481.358052,1604.58123 481.358052,1610.72549 L481.358052,1622.71429 C481.358052,1626.0112 478.808232,1628.55882 475.658456,1628.55882 C472.508679,1628.55882 469.95886,1626.0112 469.95886,1622.86415 L469.95886,1604.58123 C467.259051,1605.78011 462.90936,1607.72829 462.009424,1608.02801 C460.659519,1608.77731 459.009636,1610.42577 459.009636,1613.87255 L459.009636,1624.66246 C459.159626,1631.85574 464.859222,1637.70028 472.058711,1638 L478.808232,1638 Z M569.551798,1638 C576.751287,1637.70028 582.450883,1631.85574 582.450883,1624.66246 L582.450883,1599.33613 C579.751074,1600.53501 575.551372,1602.33333 574.651436,1602.78291 C573.301532,1603.53221 571.801638,1605.18067 571.801638,1608.62745 L571.801638,1622.71429 C571.801638,1626.0112 569.251819,1628.55882 565.952053,1628.55882 C562.802276,1628.55882 560.252457,1626.0112 560.252457,1622.71429 L560.252457,1546.13585 C560.252457,1542.9888 562.802276,1540.44118 565.952053,1540.44118 C569.251819,1540.44118 571.801638,1542.9888 571.801638,1546.13585 L571.801638,1569.66387 L579.601085,1566.06723 C580.950989,1565.46779 582.450883,1563.81933 582.450883,1560.37255 L582.450883,1544.33754 C582.450883,1537.14426 576.751287,1531.14986 569.551798,1531 L562.952266,1531 C555.452797,1531 549.453223,1536.9944 549.453223,1544.33754 L549.453223,1624.66246 C549.453223,1632.0056 555.452797,1638 562.952266,1638 L569.551798,1638 Z M648.596192,1636.95098 L648.596192,1588.84594 L660.295363,1588.84594 C661.645267,1588.84594 662.695193,1589.89496 662.845182,1591.2437 L662.845182,1636.95098 L673.644416,1636.95098 L673.644416,1536.2451 C673.644416,1534.44678 672.594491,1532.04902 669.294725,1532.04902 L662.845182,1532.04902 L662.845182,1578.20588 L652.345927,1578.20588 C649.796107,1578.20588 648.596192,1577.45658 648.596192,1574.45938 L648.596192,1532.04902 L642.14665,1532.04902 C638.846884,1532.04902 637.796958,1534.44678 637.796958,1536.2451 L637.796958,1636.95098 L648.596192,1636.95098 Z M757.488471,1636.95098 C760.938226,1636.95098 762.588109,1635.45238 763.338056,1634.10364 C763.788024,1633.20448 765.587896,1629.0084 766.787811,1626.31092 L744.289407,1626.31092 L744.289407,1589.89496 C744.289407,1588.54622 745.489322,1587.34734 746.839226,1587.34734 L751.338907,1587.34734 C754.788662,1587.34734 756.288556,1585.84874 757.038503,1584.5 C757.488471,1583.60084 759.288343,1579.2549 760.488258,1576.55742 L744.289407,1576.55742 L744.289407,1545.38655 C744.289407,1543.88796 745.339332,1542.83894 746.839226,1542.83894 L755.538609,1542.83894 C758.988364,1542.83894 760.638247,1541.19048 761.238205,1539.84174 L764.837949,1532.04902 L736.789938,1532.04902 C734.990066,1532.04902 733.640162,1533.39776 733.490172,1535.04622 L733.490172,1636.95098 L757.488471,1636.95098 Z M824.233738,1636.95098 L824.233738,1582.85154 L830.533291,1610.27591 C831.133248,1612.52381 832.333163,1618.81793 838.632717,1618.81793 L841.932483,1618.81793 L850.031908,1582.85154 L850.031908,1636.95098 L860.681153,1636.95098 L860.681153,1532.04902 L854.081621,1532.04902 C850.181898,1532.04902 849.431951,1535.34594 849.281961,1535.79552 L837.432802,1596.18908 L824.983684,1535.94538 C824.983684,1535.94538 824.383727,1532.04902 820.184025,1532.04902 L813.584493,1532.04902 L813.584493,1636.95098 L824.233738,1636.95098 Z M916.177218,1636.95098 L925.626548,1564.71849 L935.075878,1636.95098 L946.925037,1636.95098 L931.776112,1537.7437 C931.326143,1534.89636 930.576197,1532.04902 926.076516,1532.04902 L926.076516,1532.04902 L920.226931,1532.04902 L904.328058,1636.95098 L916.177218,1636.95098 Z M1005.57088,1636.95098 L1005.57088,1588.84594 L1017.27005,1588.84594 C1018.61995,1588.84594 1019.66988,1589.89496 1019.81987,1591.2437 L1019.81987,1636.95098 L1030.6191,1636.95098 L1030.6191,1536.2451 C1030.6191,1534.44678 1029.56918,1532.04902 1026.26941,1532.04902 L1019.81987,1532.04902 L1019.81987,1578.20588 L1009.32061,1578.20588 C1006.77079,1578.20588 1005.57088,1577.45658 1005.57088,1574.45938 L1005.57088,1532.04902 L999.121336,1532.04902 C995.82157,1532.04902 994.771644,1534.44678 994.771644,1536.2451 L994.771644,1636.95098 L1005.57088,1636.95098 Z M1114.46316,1636.95098 C1117.91291,1636.95098 1119.5628,1635.45238 1120.31274,1634.10364 C1120.76271,1633.20448 1122.56258,1629.0084 1123.7625,1626.31092 L1101.26409,1626.31092 L1101.26409,1589.89496 C1101.26409,1588.54622 1102.46401,1587.34734 1103.81391,1587.34734 L1108.31359,1587.34734 C1111.76335,1587.34734 1113.26324,1585.84874 1114.01319,1584.5 C1114.46316,1583.60084 1116.26303,1579.2549 1117.46294,1576.55742 L1101.26409,1576.55742 L1101.26409,1545.38655 C1101.26409,1543.88796 1102.31402,1542.83894 1103.81391,1542.83894 L1112.5133,1542.83894 C1115.96305,1542.83894 1117.61293,1541.19048 1118.21289,1539.84174 L1121.81264,1532.04902 L1093.76462,1532.04902 C1091.96475,1532.04902 1090.61485,1533.39776 1090.46486,1535.04622 L1090.46486,1636.95098 L1114.46316,1636.95098 Z M1186.75803,1636.95098 L1186.75803,1591.84314 L1192.45763,1591.84314 C1195.30742,1591.84314 1198.00723,1593.4916 1198.00723,1598.58683 L1198.00723,1636.95098 L1208.80647,1636.95098 L1208.80737,1596.76032 C1208.82198,1596.24867 1208.95909,1588.92218 1204.90674,1586.89776 C1209.18012,1585.86714 1208.82078,1577.89343 1208.80685,1577.61397 L1208.80647,1545.23669 C1208.80647,1537.89356 1202.80689,1532.04902 1195.6074,1532.04902 L1175.9588,1532.04902 L1175.9588,1636.95098 L1186.75803,1636.95098 Z M1192.45763,1581.65266 L1186.75803,1581.65266 L1186.75803,1542.08964 L1192.45763,1542.08964 C1195.30742,1542.08964 1198.00723,1543.58824 1198.00723,1547.48459 L1198.00723,1575.65826 C1198.00723,1580.45378 1195.30742,1581.65266 1192.45763,1581.65266 Z M1286.95093,1638 C1294.15041,1637.70028 1299.85001,1632.0056 1300,1624.81232 L1300,1544.33754 C1300,1537.14426 1294.15041,1531.29972 1286.95093,1531 L1278.70151,1531 C1271.20204,1531 1265.20247,1536.9944 1265.20247,1544.33754 L1265.20247,1624.81232 C1265.35246,1632.0056 1271.35203,1638 1278.70151,1638 L1286.95093,1638 Z M1283.35118,1628.55882 L1281.7013,1628.55882 C1278.55152,1628.40896 1276.0017,1625.86134 1276.0017,1622.71429 L1276.0017,1546.28571 C1276.0017,1543.13866 1278.55152,1540.59104 1281.7013,1540.44118 L1283.35118,1540.44118 C1286.50096,1540.44118 1289.05078,1542.9888 1289.05078,1546.28571 L1289.05078,1622.71429 C1289.05078,1626.0112 1286.50096,1628.55882 1283.35118,1628.55882 Z" id="SchemaHero"></path>
        </g>
    </g>
</svg>