<?xml version="1.0" encoding="UTF-8"?>
<svg width="841px" height="107px" viewBox="0 0 841 107" version="1.1" xmlns="http://www.w3.org/2000/svg" xmlns:xlink="http://www.w3.org/1999/xlink">
    <!-- Generator: Sketch 62 (91390) - https://sketch.com -->
    <title>SchemaHero</title>
    <desc>Created with Sketch.</desc>
    <g id="Page-1" stroke="none" stroke-width="1" fill="none" fill-rule="evenodd">
        <g id="Artboard" transform="translate(-591.000000, -1059.000000)" fill="#326DE6" fill-rule="nonzero">
            <g id="Group-5" transform="translate(325.000000, 1002.000000)">
                <path d="M285.808232,164 C293.307701,164 299.307275,158.005602 299.307275,150.662465 L299.30814,137.309584 C299.327435,136.942344 299.615361,130.022295 294.507616,120.690476 L281.60853,96.4131653 C281.60853,96.4131653 276.95886,88.4705882 276.95886,82.3263305 L276.95886,72.2857143 C276.95886,68.9887955 279.508679,66.4411765 282.658456,66.4411765 C285.808232,66.4411765 288.358052,68.9887955 288.358052,72.2857143 L288.358052,84.4243697 C291.20785,83.2254902 295.407552,81.2773109 296.307488,80.8277311 C297.657392,80.0784314 299.307275,78.429972 299.307275,74.9831933 L299.307275,70.9369748 C299.307275,63.7436975 293.45769,57.1498599 286.258201,57 L279.508679,57 C272.009211,57 266.009636,63.5938375 266.009636,70.9369748 L266.008772,81.7422368 C265.989477,82.109477 265.70155,89.0295253 270.809296,98.3613445 L283.708381,122.488796 C283.708381,122.488796 288.358052,130.581232 288.358052,136.72549 L288.358052,148.714286 C288.358052,152.011204 285.808232,154.558824 282.658456,154.558824 C279.508679,154.558824 276.95886,152.011204 276.95886,148.864146 L276.95886,130.581232 C274.259051,131.780112 269.90936,133.728291 269.009424,134.028011 C267.659519,134.777311 266.009636,136.42577 266.009636,139.872549 L266.009636,150.662465 C266.159626,157.855742 271.859222,163.70028 279.058711,164 L285.808232,164 Z M376.551798,164 C383.751287,163.70028 389.450883,157.855742 389.450883,150.662465 L389.450883,125.336134 C386.751074,126.535014 382.551372,128.333333 381.651436,128.782913 C380.301532,129.532213 378.801638,131.180672 378.801638,134.627451 L378.801638,148.714286 C378.801638,152.011204 376.251819,154.558824 372.952053,154.558824 C369.802276,154.558824 367.252457,152.011204 367.252457,148.714286 L367.252457,72.1358543 C367.252457,68.9887955 369.802276,66.4411765 372.952053,66.4411765 C376.251819,66.4411765 378.801638,68.9887955 378.801638,72.1358543 L378.801638,95.6638655 L386.601085,92.0672269 C387.950989,91.4677871 389.450883,89.8193277 389.450883,86.372549 L389.450883,70.337535 C389.450883,63.1442577 383.751287,57.1498599 376.551798,57 L369.952266,57 C362.452797,57 356.453223,62.9943978 356.453223,70.337535 L356.453223,150.662465 C356.453223,158.005602 362.452797,164 369.952266,164 L376.551798,164 Z M455.596192,162.95098 L455.596192,114.845938 L467.295363,114.845938 C468.645267,114.845938 469.695193,115.894958 469.845182,117.243697 L469.845182,162.95098 L480.644416,162.95098 L480.644416,62.245098 C480.644416,60.4467787 479.594491,58.0490196 476.294725,58.0490196 L469.845182,58.0490196 L469.845182,104.205882 L459.345927,104.205882 C456.796107,104.205882 455.596192,103.456583 455.596192,100.459384 L455.596192,58.0490196 L449.14665,58.0490196 C445.846884,58.0490196 444.796958,60.4467787 444.796958,62.245098 L444.796958,162.95098 L455.596192,162.95098 Z M564.488471,162.95098 C567.938226,162.95098 569.588109,161.452381 570.338056,160.103641 C570.788024,159.204482 572.587896,155.008403 573.787811,152.310924 L551.289407,152.310924 L551.289407,115.894958 C551.289407,114.546218 552.489322,113.347339 553.839226,113.347339 L558.338907,113.347339 C561.788662,113.347339 563.288556,111.848739 564.038503,110.5 C564.488471,109.60084 566.288343,105.254902 567.488258,102.557423 L551.289407,102.557423 L551.289407,71.3865546 C551.289407,69.8879552 552.339332,68.8389356 553.839226,68.8389356 L562.538609,68.8389356 C565.988364,68.8389356 567.638247,67.1904762 568.238205,65.8417367 L571.837949,58.0490196 L543.789938,58.0490196 C541.990066,58.0490196 540.640162,59.3977591 540.490172,61.0462185 L540.490172,162.95098 L564.488471,162.95098 Z M631.233738,162.95098 L631.233738,108.851541 L637.533291,136.27591 C638.133248,138.52381 639.333163,144.817927 645.632717,144.817927 L648.932483,144.817927 L657.031908,108.851541 L657.031908,162.95098 L667.681153,162.95098 L667.681153,58.0490196 L661.081621,58.0490196 C657.181898,58.0490196 656.431951,61.3459384 656.281961,61.7955182 L644.432802,122.189076 L631.983684,61.9453782 C631.983684,61.9453782 631.383727,58.0490196 627.184025,58.0490196 L620.584493,58.0490196 L620.584493,162.95098 L631.233738,162.95098 Z M723.177218,162.95098 L732.626548,90.7184874 L742.075878,162.95098 L753.925037,162.95098 L738.776112,63.7436975 C738.326143,60.8963585 737.576197,58.0490196 733.076516,58.0490196 L733.076516,58.0490196 L727.226931,58.0490196 L711.328058,162.95098 L723.177218,162.95098 Z M812.570879,162.95098 L812.570879,114.845938 L824.270049,114.845938 C825.619953,114.845938 826.669879,115.894958 826.819868,117.243697 L826.819868,162.95098 L837.619102,162.95098 L837.619102,62.245098 C837.619102,60.4467787 836.569177,58.0490196 833.269411,58.0490196 L826.819868,58.0490196 L826.819868,104.205882 L816.320613,104.205882 C813.770794,104.205882 812.570879,103.456583 812.570879,100.459384 L812.570879,58.0490196 L806.121336,58.0490196 C802.82157,58.0490196 801.771644,60.4467787 801.771644,62.245098 L801.771644,162.95098 L812.570879,162.95098 Z M921.463157,162.95098 C924.912912,162.95098 926.562795,161.452381 927.312742,160.103641 C927.76271,159.204482 929.562582,155.008403 930.762497,152.310924 L908.264093,152.310924 L908.264093,115.894958 C908.264093,114.546218 909.464008,113.347339 910.813912,113.347339 L915.313593,113.347339 C918.763348,113.347339 920.263242,111.848739 921.013189,110.5 C921.463157,109.60084 923.263029,105.254902 924.462944,102.557423 L908.264093,102.557423 L908.264093,71.3865546 C908.264093,69.8879552 909.314018,68.8389356 910.813912,68.8389356 L919.513295,68.8389356 C922.96305,68.8389356 924.612933,67.1904762 925.212891,65.8417367 L928.812636,58.0490196 L900.764625,58.0490196 C898.964752,58.0490196 897.614848,59.3977591 897.464859,61.0462185 L897.464859,162.95098 L921.463157,162.95098 Z M993.75803,162.95098 L993.75803,117.843137 L999.457626,117.843137 C1002.30742,117.843137 1005.00723,119.491597 1005.00723,124.586835 L1005.00723,162.95098 L1015.80647,162.95098 L1015.80737,122.760316 C1015.82198,122.248669 1015.95909,114.922183 1011.90674,112.897759 C1016.18012,111.867143 1015.82078,103.893432 1015.80685,103.61397 L1015.80647,71.2366947 C1015.80647,63.8935574 1009.80689,58.0490196 1002.6074,58.0490196 L982.958796,58.0490196 L982.958796,162.95098 L993.75803,162.95098 Z M999.457626,107.652661 L993.75803,107.652661 L993.75803,68.0896359 L999.457626,68.0896359 C1002.30742,68.0896359 1005.00723,69.5882353 1005.00723,73.4845938 L1005.00723,101.658263 C1005.00723,106.453782 1002.30742,107.652661 999.457626,107.652661 Z M1093.95093,164 C1101.15041,163.70028 1106.85001,158.005602 1107,150.812325 L1107,70.337535 C1107,63.1442577 1101.15041,57.2997199 1093.95093,57 L1085.70151,57 C1078.20204,57 1072.20247,62.9943978 1072.20247,70.337535 L1072.20247,150.812325 C1072.35246,158.005602 1078.35203,164 1085.70151,164 L1093.95093,164 Z M1090.35118,154.558824 L1088.7013,154.558824 C1085.55152,154.408964 1083.0017,151.861345 1083.0017,148.714286 L1083.0017,72.2857143 C1083.0017,69.1386555 1085.55152,66.5910364 1088.7013,66.4411765 L1090.35118,66.4411765 C1093.50096,66.4411765 1096.05078,68.9887955 1096.05078,72.2857143 L1096.05078,148.714286 C1096.05078,152.011204 1093.50096,154.558824 1090.35118,154.558824 Z" id="SchemaHero"></path>
            </g>
        </g>
    </g>
</svg>