<?xml version="1.0" encoding="UTF-8"?>
<svg width="1107px" height="201px" viewBox="0 0 1107 201" version="1.1" xmlns="http://www.w3.org/2000/svg" xmlns:xlink="http://www.w3.org/1999/xlink">
    <!-- Generator: Sketch 62 (91390) - https://sketch.com -->
    <title>Group 5</title>
    <desc>Created with Sketch.</desc>
    <g id="Page-1" stroke="none" stroke-width="1" fill="none" fill-rule="evenodd">
        <g id="Artboard" transform="translate(-325.000000, -1002.000000)">
            <g id="Group-5" transform="translate(325.000000, 1002.000000)">
                <g id="Group-3-Copy-4">
                    <g id="Group">
                        <polygon id="Path" fill="#79A5FF" points="20.3115584 39.6046105 60.1853891 39.6046105 67.6968568 16.7922448"></polygon>
                        <polygon id="Path" fill="#5489F3" transform="translate(106.553023, 20.840145) scale(1, -1) translate(-106.553023, -20.840145) " points="82.980688 32.2463279 122.12875 32.2463279 130.125357 9.43396226"></polygon>
                        <polygon id="Path-2" fill="#326DE6" points="67.6968568 16.7922448 67.6968568 39.6046105 60.1853891 39.6046105"></polygon>
                        <polygon id="Path-3" fill="#79A5FF" points="67.6968568 16.7922448 102.551379 53.1979731 102.554719 18.9075308"></polygon>
                        <polygon id="Path-4" fill="#A8C4FF" points="82.980688 9.43396226 122.12875 9.43396226 102.554719 0"></polygon>
                        <polygon id="Path-5" fill="#326DE6" points="67.6968568 16.7922448 102.554719 18.9127543 82.980688 9.43396226"></polygon>
                        <polygon id="Path-6" fill="#A8C4FF" points="67.6968568 16.7922448 67.6968568 83.7124252 102.551379 53.1979731"></polygon>
                        <polygon id="Path-7" fill="#A8C4FF" points="20.3115584 39.6046105 53.4050711 72.3508968 67.6968568 39.6046105"></polygon>
                        <polygon id="Path-8" fill="#79A5FF" points="67.6968568 39.6046105 67.6968568 114.713811 53.4050711 72.3508968"></polygon>
                        <polygon id="Path-9" fill="#79A5FF" points="53.4050711 72.3508968 20.3115584 39.6046105 12.8348733 72.3508968"></polygon>
                        <polygon id="Path-10" fill="#5489F3" points="67.6968568 114.713811 102.551379 53.1979731 67.6968568 83.7124252"></polygon>
                        <polygon id="Path-11" fill="#A8C4FF" points="53.4050711 72.3508968 44.0042076 92.3711991 67.6968568 114.713811"></polygon>
                        <polygon id="Path-12" fill="#79A5FF" points="44.0042076 92.3711991 5.3396125 105.188679 12.8348733 72.3508968"></polygon>
                        <polygon id="Path-13" fill="#5489F3" points="12.8348733 72.3508968 44.0042076 92.3711991 53.4050711 72.3508968"></polygon>
                        <polygon id="Path-14" fill="#326DE6" points="2.68129334e-14 128.595362 44.0042076 92.3711991 5.3396125 105.188679"></polygon>
                        <polygon id="Path-15" fill="#A8C4FF" points="102.554719 53.1979731 130.125357 32.2463279 102.554719 18.9075308"></polygon>
                        <polygon id="Path-16" fill="#A8C4FF" points="130.125357 32.2463279 161.075836 28.1726919 122.12875 9.43396226"></polygon>
                        <polygon id="Path-17" fill="#5489F3" points="102.551379 53.1979731 130.125357 71.0955079 161.075836 28.1726919 130.125357 32.2463279"></polygon>
                        <polygon id="Path-18" fill="#2C60C8" points="98.9111069 92.9050944 130.125357 71.0955079 102.551379 53.1979731"></polygon>
                        <polygon id="Path-19" fill="#326DE6" points="89.3655358 99.5651728 85.1257878 135.947191 130.125357 96.7091895 108.25451 86.3694773"></polygon>
                        <polygon id="Path-20" fill="#2D55A5" points="85.1241181 135.947191 67.6968568 155.874778 24.2659397 123.622439 67.6968568 114.713811"></polygon>
                        <polygon id="Path-21" fill="#2D55A5" points="-1.67580834e-15 128.595362 24.2659397 123.622439 21.749047 155.874778"></polygon>
                        <polygon id="Path-22" fill="#5489F3" points="21.749047 155.874778 67.6968568 155.874778 40.7543933 135.86299"></polygon>
                        <polygon id="Path-23" fill="#326DE6" points="24.2659397 123.622439 21.749047 155.874778 40.7543933 135.86299"></polygon>
                        <polygon id="Path-24" fill="#234A96" points="45.3100253 155.874778 21.749047 155.874778 33.7083286 170.863395"></polygon>
                        <polygon id="Path-25" fill="#1D52BB" points="40.7543933 170.863395 54.6950289 170.863395 67.6968568 155.874778 45.3100253 155.874778"></polygon>
                        <polygon id="Path-26" fill="#326DE6" points="33.7083286 170.863395 40.7543933 170.863395 45.3100253 155.874778"></polygon>
                        <polygon id="Path-27" fill="#5489F3" points="54.6950289 170.863395 56.911722 199.960405 33.7083286 170.863395"></polygon>
                        <polygon id="Path-28" fill="#1D4493" points="54.6950289 170.863395 85.1257878 170.863395 85.1257878 135.947191"></polygon>
                        <polygon id="Path-29" fill="#234A96" points="85.1257878 170.863395 54.6950289 170.863395 56.911722 199.960405"></polygon>
                        <polygon id="Path-30" fill="#2D55A5" points="130.125357 71.0955079 130.125357 96.7091895 162.736345 71.0955079"></polygon>
                        <polygon id="Path-31" fill="#326DE6" points="130.125357 71.0955079 191.979465 71.0955079 184.7912 39.6046105"></polygon>
                        <polygon id="Path-32" fill="#326DE6" points="130.125357 96.7091895 146.430851 112.653069 162.736345 71.0955079"></polygon>
                        <polygon id="Path-33" fill="#2D55A5" points="85.1257878 135.947191 146.430851 112.653069 130.125357 96.7091895"></polygon>
                        <polygon id="Path-34" fill="#1D52BB" points="146.430851 112.653069 189.959166 93.532354 191.979465 71.0955079 162.736345 71.0955079"></polygon>
                        <polygon id="Path-35" fill="#12357C" points="189.959166 93.532354 191.979465 71.0955079 197.105326 93.532354"></polygon>
                        <polygon id="Path-36" fill="#1D52BB" points="189.959166 93.532354 179.523226 112.653069 201.942118 114.705067 197.105326 93.532354"></polygon>
                        <polygon id="Path-37" fill="#12357C" points="179.523226 112.653069 146.430851 112.653069 189.959166 93.532354"></polygon>
                        <polygon id="Path-38" fill="#1D4493" points="162.736345 112.653069 133.556198 139.748608 85.1257878 135.947191 146.430851 112.653069"></polygon>
                        <polygon id="Path-39" fill="#326DE6" points="133.556198 139.748608 179.523226 112.653069 162.736345 112.653069"></polygon>
                        <polygon id="Path-40" fill="#5489F3" points="85.1257878 170.863395 111.043484 137.983025 85.1257878 135.947191"></polygon>
                        <polygon id="Path-41" fill="#1D4493" points="109.340993 155.874778 133.556198 139.748608 111.043484 137.983025"></polygon>
                        <polygon id="Path-42" fill="#1D52BB" points="109.340993 155.874778 111.043484 137.983025 85.1257878 170.863395"></polygon>
                        <polygon id="Path-43" fill="#12357C" points="179.523226 112.653069 189.959166 135.294294 205.102759 128.595362 201.942118 114.705067"></polygon>
                        <polygon id="Path-44" fill="#1D4493" points="189.959166 135.294294 205.102759 128.595362 189.959166 147.593613"></polygon>
                        <polygon id="Path-45" fill="#12357C" points="189.959166 147.593613 162.736345 122.56302 179.523226 112.653069"></polygon>
                        <polygon id="Path-46" fill="#326DE6" points="179.523226 112.653069 189.959166 135.294294 189.959166 147.593613"></polygon>
                        <polygon id="Path-47" fill="#1D4493" points="133.556198 139.748608 189.959166 147.593613 162.736345 122.56302"></polygon>
                        <polygon id="Path-48" fill="#1D52BB" points="133.556198 139.748608 156.539712 157.583739 156.539712 142.944774"></polygon>
                        <polygon id="Path-49" fill="#12357C" points="156.539712 157.583739 181.983502 157.583739 189.959166 147.593613 156.539712 142.944774"></polygon>
                        <polygon id="Path-50" fill="#2D55A5" points="156.539712 157.583739 181.983502 157.583739 169.261607 173.540309"></polygon>
                        <polygon id="Path-51" fill="#12357C" points="156.539712 157.583739 156.539712 189.511098 169.261607 173.540309"></polygon>
                        <polygon id="Path-52" fill="#1D52BB" points="85.1257878 170.863395 78.8269903 199.960405 56.911722 199.960405"></polygon>
                        <polygon id="Path-53" fill="#12357C" points="85.1241181 170.863395 118.472633 170.863395 137.395264 157.583739 106.587416 157.583739"></polygon>
                        <polygon id="Path-54" fill="#2D55A5" points="137.395264 157.583739 124.256589 145.949302 106.587416 157.583739"></polygon>
                        <polygon id="Path-55" fill="#1D4493" points="137.395264 157.583739 133.556198 139.748608 124.256589 145.949302"></polygon>
                        <polygon id="Path-56" fill="#234A96" points="156.539712 157.583739 137.395264 157.583739 133.556198 139.748608"></polygon>
                        <polygon id="Path-57" fill="#326DE6" points="78.8269903 199.960405 118.472633 170.863395 85.1257878 170.863395"></polygon>
                        <polygon id="Path-58" fill="#12357C" points="78.8269903 199.960405 106.587416 199.960405 102.551379 182.567471"></polygon>
                        <polygon id="Path-59" fill="#326DE6" points="148.191037 199.960405 156.539712 157.583739 156.539712 189.511098"></polygon>
                        <polygon id="Path-60" fill="#12357C" points="156.539712 157.583739 137.395264 157.583739 148.191037 199.960405"></polygon>
                        <polygon id="Path-61" fill="#1D4493" points="148.191037 199.960405 118.472633 170.863395 137.395264 157.583739"></polygon>
                        <polygon id="Path-62" fill="#1D4493" points="118.472633 170.863395 106.587416 199.960405 102.551379 182.567471"></polygon>
                        <polygon id="Path-63" fill="#12357C" points="106.587416 199.960405 148.191037 199.960405 130.432469 182.567471"></polygon>
                        <polygon id="Path-64" fill="#2D55A5" points="106.587416 199.960405 118.472633 170.863395 130.432469 182.567471"></polygon>
                        <polygon id="Path-65" fill="#5489F3" points="108.25451 86.3694773 130.125357 71.0955079 130.125357 96.7091895"></polygon>
                        <polygon id="Path-66" fill="#79A5FF" points="67.6968568 114.705067 98.9111069 92.9050944 88.8839571 77.3566719"></polygon>
                        <polygon id="Path-67" fill="#79A5FF" points="88.8839571 77.3566719 98.9111069 92.9050944 102.554719 53.1979731"></polygon>
                        <polygon id="Path-68" fill="#2D55A5" points="130.125357 71.0955079 161.052411 28.1984276 168.159611 49.1702837"></polygon>
                        <polygon id="Path-69" fill="#5489F3" points="168.159611 49.1702837 184.7912 39.6046105 161.075836 28.1984276"></polygon>
                        <polygon id="Path-70" fill="#5489F3" points="85.1257878 135.86299 89.3655358 99.5651728 67.6968568 114.713811"></polygon>
                        <polygon id="Path-71" fill="#2C60C8" points="2.01097001e-14 128.595362 44.0042076 92.3711991 67.6968568 114.713811"></polygon>
                    </g>
                    <path d="M95.0028979,2.92921746 L95.4665042,3.11648524 L86.3161548,25.7699583 C86.7109638,26.0098501 87.0297542,26.362393 87.2279121,26.7829732 L122.953139,8.93129348 L123.17664,9.37856016 L87.3924384,27.2593744 C87.4312058,27.4290109 87.4516822,27.6056153 87.4516822,27.7870023 C87.4516822,27.8690992 87.4474875,27.9502164 87.4393009,28.0301512 L150.693115,32.1033725 C150.790296,31.5354256 151.090555,31.036798 151.516497,30.6848864 L144.554387,20.1417488 L144.971619,19.866218 L151.933451,30.4089541 C152.187779,30.2770604 152.469172,30.1901188 152.767109,30.1586503 L152.76772,24.0867577 L153.26772,24.0867577 L153.267889,30.1586038 C154.230512,30.2600944 155.020506,30.9406676 155.283064,31.8455156 L166.181319,29.899386 L166.269215,30.3915998 L155.370424,32.3374743 C155.37426,32.392479 155.37621,32.4480035 155.37621,32.5039834 C155.37621,33.072693 155.17492,33.5943888 154.839698,34.0017121 L177.968024,57.5421798 C178.370359,57.2229486 178.879321,57.0322853 179.432814,57.0322853 C179.683645,57.0322853 179.92533,57.0714417 180.15209,57.1439753 L185.575099,43.6668211 L186.038959,43.8534602 L180.609471,57.3463141 C181.315853,57.7537385 181.791305,58.5167333 181.791305,59.3907759 C181.791305,59.4025016 181.791219,59.4142073 181.791049,59.4258924 L189.985114,60.4599196 L189.922503,60.9559839 L181.731142,59.9224096 C181.621776,60.3971327 181.369114,60.8170808 181.021147,61.1342644 L194.467801,80.6820692 L194.055858,80.9654483 L180.617317,61.4306919 C180.440776,61.5334245 180.249682,61.6138962 180.047883,61.6682617 L187.330007,107.508217 L187.451682,107.503983 C188.669739,107.503983 189.672131,108.427356 189.797062,109.612305 L200.748734,109.612474 L200.748734,110.112474 L189.797015,110.113085 C189.704248,110.991388 189.129394,111.72592 188.341999,112.047136 L196.398941,139.981872 L195.918524,140.120434 L187.862302,112.185345 C187.728951,112.208756 187.591742,112.220965 187.451682,112.220965 C187.231266,112.220965 187.017912,112.190728 186.815542,112.134177 L167.325439,161.077656 C167.781332,161.318514 168.148766,161.704397 168.366321,162.173886 L181.89786,157.58585 L182.058428,158.059367 L168.526946,162.64749 C168.564137,162.813831 168.583758,162.986805 168.583758,163.164361 C168.583758,163.636284 168.445151,164.075833 168.206427,164.444521 L173.401258,168.644481 L173.086905,169.033303 L167.892001,164.833035 C167.520783,165.203825 167.026593,165.451527 166.475878,165.509694 L166.475267,177.930241 L165.975267,177.930241 L165.975098,165.50974 C165.27177,165.435588 164.660597,165.052303 164.279965,164.498274 L140.158161,175.616093 C140.238379,175.853363 140.281871,176.107557 140.281871,176.371908 C140.281871,176.999998 140.036352,177.570743 139.636051,177.993408 L153.207846,193.888257 L152.827594,194.212923 L139.256395,178.317826 C138.928207,178.543077 138.540172,178.687459 138.121025,178.722235 L137.639842,199.922881 L137.13997,199.911555 L137.620256,178.7111 C137.015776,178.633542 136.482902,178.327146 136.111284,177.881564 L102.727774,200.164748 L102.45019,199.748879 L135.8335,177.466048 C135.733146,177.274759 135.658285,177.067997 135.613432,176.850276 L53.9610396,184.881671 C53.9564629,185.455752 53.7467789,185.980971 53.4016648,186.387651 L66.1703852,199.784329 L65.8084508,200.129298 L53.0399054,186.73257 C52.6419952,187.038843 52.1435788,187.220965 51.6026256,187.220965 L51.6380069,187.219217 L50.9983942,193.162707 L50.5012644,193.10921 L51.140197,187.175648 C50.1390348,186.976621 49.3661645,186.143864 49.2572925,185.113085 L44.7175943,185.112474 L44.7175943,184.612474 L49.2572459,184.612305 C49.3393183,183.833861 49.8000798,183.168307 50.4518986,182.803275 L19.2751112,109.759523 C19.0564708,109.826458 18.8243202,109.862474 18.5837576,109.862474 C17.983298,109.862474 17.4352481,109.638081 17.0188897,109.268577 L1.11178555,123.764036 L0.775006903,123.394469 L16.6816389,108.898676 C16.3947359,108.50805 16.2252671,108.025808 16.2252671,107.503983 C16.2252671,107.386683 16.2338304,107.271383 16.2503659,107.158674 L5.27162723,104.317552 L5.39688247,103.833495 L16.3754398,106.674029 C16.6366487,105.979345 17.2162541,105.440542 17.9364424,105.235433 L12.3327701,72.9045527 L12.825424,72.819159 L18.4290069,105.150217 L18.5837576,105.145493 C18.9308723,105.145493 19.2604727,105.22048 19.5572431,105.355139 L45.4809812,61.2855314 C45.0152408,60.9396902 44.6814246,60.4261987 44.5687964,59.8343204 L15.1558157,62.2742715 L15.1144726,61.7759837 L44.5277934,59.3353064 C44.5435935,58.6507002 44.8511121,58.0381974 45.3308815,57.617266 L29.4649283,35.0959001 L29.8736849,34.8079451 L45.7399072,57.32879 C46.0791325,57.1398968 46.4698214,57.0322853 46.8856444,57.0322853 C46.9433527,57.0322853 47.0005769,57.0343579 47.0572467,57.0384328 L53.1537116,23.3614828 L53.6457153,23.4505468 L47.549933,57.1271285 C47.9296429,57.238376 48.2696401,57.4425673 48.5436211,57.7133992 L83.2893885,29.3065478 C82.9432802,28.8961157 82.734701,28.3659171 82.734701,27.7870023 C82.734701,27.2400588 82.9208783,26.7365993 83.233316,26.3365406 L72.8736635,14.0329437 L73.256116,13.7108722 L83.5839541,25.9745566 C83.9929373,25.6336217 84.5191115,25.4285117 85.0931916,25.4285117 C85.3627119,25.4285117 85.6216731,25.4737207 85.8629055,25.556969 L95.0028979,2.92921746 Z M97.0666964,159.582532 C96.6655468,160.311731 95.8899056,160.80587 94.998852,160.80587 C94.2423014,160.80587 93.5689503,160.449651 93.1373738,159.895787 L53.880646,184.249393 C53.8925658,184.293794 53.903222,184.338712 53.9125738,184.384106 L135.564966,176.352711 C135.566775,176.125835 135.600618,175.906591 135.662193,175.699279 Z M60.1926909,141.323352 C59.7733414,141.976729 59.0404266,142.409644 58.2063992,142.409644 C58.1759123,142.409644 58.1455606,142.409065 58.1153543,142.407919 L52.2588688,182.596485 C52.8834667,182.777054 53.401426,183.208873 53.6961895,183.775384 L92.8731743,159.470381 C92.723977,159.160933 92.6403614,158.813921 92.6403614,158.44738 C92.6403614,158.156657 92.692963,157.87822 92.789168,157.621068 Z M20.2368493,109.186175 C20.0875358,109.332922 19.9187731,109.459942 19.7347823,109.563016 L50.911272,182.606934 C51.1299124,182.54 51.362063,182.503983 51.6026256,182.503983 C51.6575858,182.503983 51.712107,182.505863 51.7661283,182.509562 L57.619951,142.336156 C56.6011076,142.075444 55.8479086,141.151258 55.8479086,140.051153 C55.8479086,139.572446 55.9905289,139.12705 56.2355969,138.755137 Z M112.866097,107.44443 L96.0012749,156.311903 C96.8025935,156.688707 97.3573426,157.503259 97.3573426,158.44738 C97.3573426,158.681087 97.3233498,158.906855 97.2600388,159.120009 L135.855857,175.236173 C136.096003,174.799934 136.470199,174.447875 136.922946,174.235497 L113.922706,107.44474 C113.75307,107.483507 113.576465,107.503983 113.395078,107.503983 C113.213209,107.503983 113.036148,107.483398 112.866097,107.44443 Z M151.331858,137.595359 C151.118705,137.65867 150.892937,137.692663 150.659229,137.692663 C150.558927,137.692663 150.460087,137.686401 150.363079,137.674248 L138.864692,174.208755 C139.317692,174.406156 139.696657,174.741686 139.948385,175.162143 L164.041086,164.055857 C163.928712,163.780822 163.866777,163.479824 163.866777,163.164361 C163.866777,162.403645 164.226929,161.727048 164.786025,161.295777 Z M114.676232,107.126009 C114.586536,107.184151 114.492641,107.236365 114.395102,107.282096 L137.395752,174.072661 C137.565389,174.033894 137.741993,174.013417 137.92338,174.013417 C138.082699,174.013417 138.238327,174.029214 138.388786,174.059327 L149.876423,137.559644 C148.958638,137.236823 148.300739,136.362328 148.300739,135.334172 C148.300739,134.870305 148.434653,134.437716 148.665932,134.072955 Z M157.558136,99.0069078 L151.327816,133.071789 C152.304743,133.360041 153.01772,134.263844 153.01772,135.334172 C153.01772,136.224011 152.524927,136.998751 151.797363,137.400373 L165.211923,161.034054 C165.353744,160.966472 165.503376,160.912635 165.659096,160.874266 L157.724593,99.0133962 C157.668626,99.0131613 157.613119,99.0109771 157.558136,99.0069078 Z M159.540167,98.1724981 C159.207323,98.5680736 158.74686,98.8527094 158.222209,98.9629731 L166.154007,160.808217 L166.225267,160.80587 C166.445314,160.80587 166.658322,160.836005 166.86039,160.892373 L186.351185,111.949007 C185.603031,111.553592 185.093192,110.767573 185.093192,109.862474 C185.093192,109.620811 185.129538,109.387638 185.197062,109.168122 Z M111.559505,106.626549 L60.5150959,139.566751 C60.5477331,139.723094 60.5648897,139.88512 60.5648897,140.051153 C60.5648897,140.341496 60.5124254,140.619586 60.4164597,140.876458 L93.0125603,157.17518 C93.4319097,156.521804 94.1648245,156.088889 94.998852,156.088889 C95.1807213,156.088889 95.3577827,156.109475 95.5278331,156.148443 L112.392656,107.280969 C112.067466,107.128056 111.782884,106.90305 111.559505,106.626549 Z M79.1188451,90.2843103 C78.7114355,90.990749 77.9484089,91.4662476 77.0743237,91.4662476 C76.8723265,91.4662476 76.6762604,91.4408535 76.4891437,91.3930836 L59.1507375,137.889322 C59.683501,138.122374 60.113548,138.546595 60.3541459,139.075252 L111.288548,106.20729 C111.127376,105.888164 111.036588,105.527431 111.036588,105.145493 C111.036588,104.894662 111.075744,104.652977 111.148278,104.426217 Z M45.9111577,61.5391658 L19.9874257,105.608489 C20.5667721,106.03822 20.9422482,106.727253 20.9422482,107.503983 C20.9422482,107.981843 20.8001327,108.426509 20.5558613,108.798023 L56.5533075,138.368962 C56.8479178,138.079416 57.2182462,137.866666 57.6318678,137.763135 L46.9630069,61.7462175 L46.8856444,61.7492664 C46.5381394,61.7492664 46.2081879,61.6741104 45.9111577,61.5391658 Z M48.3933174,61.2045247 C48.1258387,61.4271101 47.8083451,61.5916464 47.4601758,61.6787944 L58.1280069,137.694217 L58.2063992,137.692663 C58.3660676,137.692663 58.5220302,137.708529 58.6727964,137.738771 L76.020548,91.2183194 C75.2469785,90.8313351 74.7158331,90.0315739 74.7158331,89.107757 C74.7158331,88.4599316 74.9770238,87.8731105 75.3998427,87.4468561 Z M155.481005,97.3522763 L115.745553,104.949638 C115.750862,105.01422 115.753569,105.079541 115.753569,105.145493 C115.753569,105.790851 115.494364,106.375669 115.074383,106.801517 L148.977038,133.68108 C149.404935,133.245698 150.000549,132.975682 150.659229,132.975682 C150.718281,132.975682 150.776827,132.977852 150.834789,132.982117 L157.066114,98.9173104 C156.310766,98.694437 155.713212,98.1035748 155.481005,97.3522763 Z M178.533439,61.5717206 L159.138369,94.7594327 C159.717715,95.189163 160.093192,95.8781963 160.093192,96.6549268 C160.093192,97.0502306 159.995938,97.4228197 159.824053,97.750073 L185.394315,108.708482 C185.701048,108.162803 186.218592,107.751508 186.836535,107.585009 L179.553007,61.7452175 L179.432814,61.7492664 C179.114336,61.7492664 178.810601,61.6861414 178.533439,61.5717206 Z M126.54093,61.3225464 C126.157838,61.5914375 125.691116,61.7492664 125.187531,61.7492664 C125.070581,61.7492664 124.955619,61.7407542 124.843231,61.7243155 L114.222034,102.93605 C114.905237,103.191875 115.43811,103.755511 115.651839,104.45814 L155.38499,96.859859 C155.379177,96.7923216 155.37621,96.7239707 155.37621,96.6549268 C155.37621,96.0386786 155.612559,95.4776325 155.999555,95.05749 Z M123.323626,60.8360633 L79.2013126,88.0874798 C79.3496885,88.39624 79.4328142,88.742291 79.4328142,89.107757 C79.4328142,89.3582208 79.3937723,89.5995658 79.3214422,89.8260383 L111.350617,103.968836 C111.758041,103.262454 112.521036,102.787002 113.395078,102.787002 C113.511678,102.787002 113.626302,102.795464 113.738369,102.811806 L124.359205,61.5997054 C123.946761,61.4449712 123.589176,61.1780324 123.323626,60.8360633 Z M177.087329,59.6399428 L127.532911,59.6409453 C127.478119,60.1606386 127.254546,60.6300173 126.918023,60.9932516 L156.374543,94.7279185 C156.758898,94.4561297 157.228151,94.2964363 157.734701,94.2964363 C158.081425,94.2964363 158.410675,94.3712549 158.707185,94.505628 L178.092821,61.3318868 C177.541807,60.9507872 177.160953,60.3411162 177.087329,59.6399428 Z M86.7906958,29.4243687 C86.3617538,29.868965 85.759766,30.1454929 85.0931916,30.1454929 C85.082471,30.1454929 85.071767,30.1454213 85.0610802,30.1452787 L77.6269454,86.8143664 C78.1552337,86.941204 78.6143377,87.2458388 78.9374363,87.6614496 L123.059592,60.4090733 C122.911812,60.1008139 122.829041,59.755461 122.829041,59.3907759 C122.829041,58.928822 122.961853,58.4978882 123.191377,58.1340752 Z M83.6539333,29.6555737 L48.8589117,58.098508 C49.1024708,58.4696636 49.244135,58.913676 49.244135,59.3907759 C49.244135,59.9395389 49.056717,60.4445281 48.7423977,60.8452267 L75.7891989,87.1298208 C76.1589024,86.8891212 76.6002806,86.7492664 77.0743237,86.7492664 C77.0932013,86.7492664 77.1120272,86.7494882 77.1307988,86.7499293 L84.5652187,30.0861702 C84.2282406,30.0091063 83.9187674,29.8598628 83.6539333,29.6555737 Z M151.504486,34.3130905 L127.048263,57.9414113 C127.311863,58.2793452 127.485418,58.6909507 127.532864,59.1401651 L177.087481,59.1401651 C177.137263,58.6688399 177.325873,58.2389171 177.611656,57.8920507 L154.483321,34.3519359 C154.08086,34.6715544 153.571586,34.862474 153.01772,34.862474 C152.441768,34.862474 151.914035,34.6560246 151.504486,34.3130905 Z M87.3341966,28.5241493 C87.2754444,28.7028675 87.1959095,28.8721551 87.0984511,29.0291531 L123.500539,57.7425831 C123.928776,57.3043284 124.526384,57.0322853 125.187531,57.0322853 C125.763199,57.0322853 126.290695,57.2385312 126.700159,57.5811618 L151.156988,33.953348 C150.845066,33.5534661 150.659229,33.0504271 150.659229,32.5039834 L150.662007,32.6022175 Z" id="Combined-Shape" fill="#FFFFFF"></path>
                </g>
                <path d="M285.808232,164 C293.307701,164 299.307275,158.005602 299.307275,150.662465 L299.30814,137.309584 C299.327435,136.942344 299.615361,130.022295 294.507616,120.690476 L281.60853,96.4131653 C281.60853,96.4131653 276.95886,88.4705882 276.95886,82.3263305 L276.95886,72.2857143 C276.95886,68.9887955 279.508679,66.4411765 282.658456,66.4411765 C285.808232,66.4411765 288.358052,68.9887955 288.358052,72.2857143 L288.358052,84.4243697 C291.20785,83.2254902 295.407552,81.2773109 296.307488,80.8277311 C297.657392,80.0784314 299.307275,78.429972 299.307275,74.9831933 L299.307275,70.9369748 C299.307275,63.7436975 293.45769,57.1498599 286.258201,57 L279.508679,57 C272.009211,57 266.009636,63.5938375 266.009636,70.9369748 L266.008772,81.7422368 C265.989477,82.109477 265.70155,89.0295253 270.809296,98.3613445 L283.708381,122.488796 C283.708381,122.488796 288.358052,130.581232 288.358052,136.72549 L288.358052,148.714286 C288.358052,152.011204 285.808232,154.558824 282.658456,154.558824 C279.508679,154.558824 276.95886,152.011204 276.95886,148.864146 L276.95886,130.581232 C274.259051,131.780112 269.90936,133.728291 269.009424,134.028011 C267.659519,134.777311 266.009636,136.42577 266.009636,139.872549 L266.009636,150.662465 C266.159626,157.855742 271.859222,163.70028 279.058711,164 L285.808232,164 Z M376.551798,164 C383.751287,163.70028 389.450883,157.855742 389.450883,150.662465 L389.450883,125.336134 C386.751074,126.535014 382.551372,128.333333 381.651436,128.782913 C380.301532,129.532213 378.801638,131.180672 378.801638,134.627451 L378.801638,148.714286 C378.801638,152.011204 376.251819,154.558824 372.952053,154.558824 C369.802276,154.558824 367.252457,152.011204 367.252457,148.714286 L367.252457,72.1358543 C367.252457,68.9887955 369.802276,66.4411765 372.952053,66.4411765 C376.251819,66.4411765 378.801638,68.9887955 378.801638,72.1358543 L378.801638,95.6638655 L386.601085,92.0672269 C387.950989,91.4677871 389.450883,89.8193277 389.450883,86.372549 L389.450883,70.337535 C389.450883,63.1442577 383.751287,57.1498599 376.551798,57 L369.952266,57 C362.452797,57 356.453223,62.9943978 356.453223,70.337535 L356.453223,150.662465 C356.453223,158.005602 362.452797,164 369.952266,164 L376.551798,164 Z M455.596192,162.95098 L455.596192,114.845938 L467.295363,114.845938 C468.645267,114.845938 469.695193,115.894958 469.845182,117.243697 L469.845182,162.95098 L480.644416,162.95098 L480.644416,62.245098 C480.644416,60.4467787 479.594491,58.0490196 476.294725,58.0490196 L469.845182,58.0490196 L469.845182,104.205882 L459.345927,104.205882 C456.796107,104.205882 455.596192,103.456583 455.596192,100.459384 L455.596192,58.0490196 L449.14665,58.0490196 C445.846884,58.0490196 444.796958,60.4467787 444.796958,62.245098 L444.796958,162.95098 L455.596192,162.95098 Z M564.488471,162.95098 C567.938226,162.95098 569.588109,161.452381 570.338056,160.103641 C570.788024,159.204482 572.587896,155.008403 573.787811,152.310924 L551.289407,152.310924 L551.289407,115.894958 C551.289407,114.546218 552.489322,113.347339 553.839226,113.347339 L558.338907,113.347339 C561.788662,113.347339 563.288556,111.848739 564.038503,110.5 C564.488471,109.60084 566.288343,105.254902 567.488258,102.557423 L551.289407,102.557423 L551.289407,71.3865546 C551.289407,69.8879552 552.339332,68.8389356 553.839226,68.8389356 L562.538609,68.8389356 C565.988364,68.8389356 567.638247,67.1904762 568.238205,65.8417367 L571.837949,58.0490196 L543.789938,58.0490196 C541.990066,58.0490196 540.640162,59.3977591 540.490172,61.0462185 L540.490172,162.95098 L564.488471,162.95098 Z M631.233738,162.95098 L631.233738,108.851541 L637.533291,136.27591 C638.133248,138.52381 639.333163,144.817927 645.632717,144.817927 L648.932483,144.817927 L657.031908,108.851541 L657.031908,162.95098 L667.681153,162.95098 L667.681153,58.0490196 L661.081621,58.0490196 C657.181898,58.0490196 656.431951,61.3459384 656.281961,61.7955182 L644.432802,122.189076 L631.983684,61.9453782 C631.983684,61.9453782 631.383727,58.0490196 627.184025,58.0490196 L620.584493,58.0490196 L620.584493,162.95098 L631.233738,162.95098 Z M723.177218,162.95098 L732.626548,90.7184874 L742.075878,162.95098 L753.925037,162.95098 L738.776112,63.7436975 C738.326143,60.8963585 737.576197,58.0490196 733.076516,58.0490196 L733.076516,58.0490196 L727.226931,58.0490196 L711.328058,162.95098 L723.177218,162.95098 Z M812.570879,162.95098 L812.570879,114.845938 L824.270049,114.845938 C825.619953,114.845938 826.669879,115.894958 826.819868,117.243697 L826.819868,162.95098 L837.619102,162.95098 L837.619102,62.245098 C837.619102,60.4467787 836.569177,58.0490196 833.269411,58.0490196 L826.819868,58.0490196 L826.819868,104.205882 L816.320613,104.205882 C813.770794,104.205882 812.570879,103.456583 812.570879,100.459384 L812.570879,58.0490196 L806.121336,58.0490196 C802.82157,58.0490196 801.771644,60.4467787 801.771644,62.245098 L801.771644,162.95098 L812.570879,162.95098 Z M921.463157,162.95098 C924.912912,162.95098 926.562795,161.452381 927.312742,160.103641 C927.76271,159.204482 929.562582,155.008403 930.762497,152.310924 L908.264093,152.310924 L908.264093,115.894958 C908.264093,114.546218 909.464008,113.347339 910.813912,113.347339 L915.313593,113.347339 C918.763348,113.347339 920.263242,111.848739 921.013189,110.5 C921.463157,109.60084 923.263029,105.254902 924.462944,102.557423 L908.264093,102.557423 L908.264093,71.3865546 C908.264093,69.8879552 909.314018,68.8389356 910.813912,68.8389356 L919.513295,68.8389356 C922.96305,68.8389356 924.612933,67.1904762 925.212891,65.8417367 L928.812636,58.0490196 L900.764625,58.0490196 C898.964752,58.0490196 897.614848,59.3977591 897.464859,61.0462185 L897.464859,162.95098 L921.463157,162.95098 Z M993.75803,162.95098 L993.75803,117.843137 L999.457626,117.843137 C1002.30742,117.843137 1005.00723,119.491597 1005.00723,124.586835 L1005.00723,162.95098 L1015.80647,162.95098 L1015.80737,122.760316 C1015.82198,122.248669 1015.95909,114.922183 1011.90674,112.897759 C1016.18012,111.867143 1015.82078,103.893432 1015.80685,103.61397 L1015.80647,71.2366947 C1015.80647,63.8935574 1009.80689,58.0490196 1002.6074,58.0490196 L982.958796,58.0490196 L982.958796,162.95098 L993.75803,162.95098 Z M999.457626,107.652661 L993.75803,107.652661 L993.75803,68.0896359 L999.457626,68.0896359 C1002.30742,68.0896359 1005.00723,69.5882353 1005.00723,73.4845938 L1005.00723,101.658263 C1005.00723,106.453782 1002.30742,107.652661 999.457626,107.652661 Z M1093.95093,164 C1101.15041,163.70028 1106.85001,158.005602 1107,150.812325 L1107,70.337535 C1107,63.1442577 1101.15041,57.2997199 1093.95093,57 L1085.70151,57 C1078.20204,57 1072.20247,62.9943978 1072.20247,70.337535 L1072.20247,150.812325 C1072.35246,158.005602 1078.35203,164 1085.70151,164 L1093.95093,164 Z M1090.35118,154.558824 L1088.7013,154.558824 C1085.55152,154.408964 1083.0017,151.861345 1083.0017,148.714286 L1083.0017,72.2857143 C1083.0017,69.1386555 1085.55152,66.5910364 1088.7013,66.4411765 L1090.35118,66.4411765 C1093.50096,66.4411765 1096.05078,68.9887955 1096.05078,72.2857143 L1096.05078,148.714286 C1096.05078,152.011204 1093.50096,154.558824 1090.35118,154.558824 Z" id="SchemaHero" fill="#326DE6" fill-rule="nonzero"></path>
            </g>
        </g>
    </g>
</svg>